<svg width="300" height="300" viewBox="0 0 300 300" fill="none" xmlns="http://www.w3.org/2000/svg">
<rect width="300" height="300" fill="white"/>
<path d="M19.95 87.45C21.4412 87.45 22.65 86.2412 22.65 84.75C22.65 83.2588 21.4412 82.05 19.95 82.05C18.4588 82.05 17.25 83.2588 17.25 84.75C17.25 86.2412 18.4588 87.45 19.95 87.45Z" fill="#FF0000"/>
<path d="M19.95 111.75C21.4412 111.75 22.65 110.541 22.65 109.05C22.65 107.559 21.4412 106.35 19.95 106.35C18.4588 106.35 17.25 107.559 17.25 109.05C17.25 110.541 18.4588 111.75 19.95 111.75Z" fill="#FF0000"/>
<path d="M19.95 119.85C21.4412 119.85 22.65 118.641 22.65 117.15C22.65 115.659 21.4412 114.45 19.95 114.45C18.4588 114.45 17.25 115.659 17.25 117.15C17.25 118.641 18.4588 119.85 19.95 119.85Z" fill="#FF0000"/>
<path d="M19.95 127.95C21.4412 127.95 22.65 126.741 22.65 125.25C22.65 123.759 21.4412 122.55 19.95 122.55C18.4588 122.55 17.25 123.759 17.25 125.25C17.25 126.741 18.4588 127.95 19.95 127.95Z" fill="#FF0000"/>
<path d="M19.95 136.05C21.4412 136.05 22.65 134.841 22.65 133.35C22.65 131.859 21.4412 130.65 19.95 130.65C18.4588 130.65 17.25 131.859 17.25 133.35C17.25 134.841 18.4588 136.05 19.95 136.05Z" fill="#FF0000"/>
<path d="M19.95 160.35C21.4412 160.35 22.65 159.141 22.65 157.65C22.65 156.159 21.4412 154.95 19.95 154.95C18.4588 154.95 17.25 156.159 17.25 157.65C17.25 159.141 18.4588 160.35 19.95 160.35Z" fill="#FF0000"/>
<path d="M19.95 176.55C21.4412 176.55 22.65 175.341 22.65 173.85C22.65 172.359 21.4412 171.15 19.95 171.15C18.4588 171.15 17.25 172.359 17.25 173.85C17.25 175.341 18.4588 176.55 19.95 176.55Z" fill="#FF0000"/>
<path d="M19.95 192.75C21.4412 192.75 22.65 191.541 22.65 190.05C22.65 188.559 21.4412 187.35 19.95 187.35C18.4588 187.35 17.25 188.559 17.25 190.05C17.25 191.541 18.4588 192.75 19.95 192.75Z" fill="#FF0000"/>
<path d="M19.95 200.85C21.4412 200.85 22.65 199.641 22.65 198.15C22.65 196.659 21.4412 195.45 19.95 195.45C18.4588 195.45 17.25 196.659 17.25 198.15C17.25 199.641 18.4588 200.85 19.95 200.85Z" fill="#FF0000"/>
<path d="M19.95 217.05C21.4412 217.05 22.65 215.841 22.65 214.35C22.65 212.859 21.4412 211.65 19.95 211.65C18.4588 211.65 17.25 212.859 17.25 214.35C17.25 215.841 18.4588 217.05 19.95 217.05Z" fill="#FF0000"/>
<path d="M28.0496 95.55C29.5408 95.55 30.7496 94.3412 30.7496 92.85C30.7496 91.3589 29.5408 90.15 28.0496 90.15C26.5584 90.15 25.3496 91.3589 25.3496 92.85C25.3496 94.3412 26.5584 95.55 28.0496 95.55Z" fill="#FF0000"/>
<path d="M28.0496 119.85C29.5408 119.85 30.7496 118.641 30.7496 117.15C30.7496 115.659 29.5408 114.45 28.0496 114.45C26.5584 114.45 25.3496 115.659 25.3496 117.15C25.3496 118.641 26.5584 119.85 28.0496 119.85Z" fill="#FF0000"/>
<path d="M28.0496 136.05C29.5408 136.05 30.7496 134.841 30.7496 133.35C30.7496 131.859 29.5408 130.65 28.0496 130.65C26.5584 130.65 25.3496 131.859 25.3496 133.35C25.3496 134.841 26.5584 136.05 28.0496 136.05Z" fill="#FF0000"/>
<path d="M28.0496 152.25C29.5408 152.25 30.7496 151.041 30.7496 149.55C30.7496 148.059 29.5408 146.85 28.0496 146.85C26.5584 146.85 25.3496 148.059 25.3496 149.55C25.3496 151.041 26.5584 152.25 28.0496 152.25Z" fill="#FF0000"/>
<path d="M28.0496 160.35C29.5408 160.35 30.7496 159.141 30.7496 157.65C30.7496 156.159 29.5408 154.95 28.0496 154.95C26.5584 154.95 25.3496 156.159 25.3496 157.65C25.3496 159.141 26.5584 160.35 28.0496 160.35Z" fill="#FF0000"/>
<path d="M28.0496 176.55C29.5408 176.55 30.7496 175.341 30.7496 173.85C30.7496 172.359 29.5408 171.15 28.0496 171.15C26.5584 171.15 25.3496 172.359 25.3496 173.85C25.3496 175.341 26.5584 176.55 28.0496 176.55Z" fill="#FF0000"/>
<path d="M28.0496 192.75C29.5408 192.75 30.7496 191.541 30.7496 190.05C30.7496 188.559 29.5408 187.35 28.0496 187.35C26.5584 187.35 25.3496 188.559 25.3496 190.05C25.3496 191.541 26.5584 192.75 28.0496 192.75Z" fill="#FF0000"/>
<path d="M28.0496 217.05C29.5408 217.05 30.7496 215.841 30.7496 214.35C30.7496 212.859 29.5408 211.65 28.0496 211.65C26.5584 211.65 25.3496 212.859 25.3496 214.35C25.3496 215.841 26.5584 217.05 28.0496 217.05Z" fill="#FF0000"/>
<path d="M36.1492 87.45C37.6404 87.45 38.8492 86.2412 38.8492 84.75C38.8492 83.2588 37.6404 82.05 36.1492 82.05C34.658 82.05 33.4492 83.2588 33.4492 84.75C33.4492 86.2412 34.658 87.45 36.1492 87.45Z" fill="#FF0000"/>
<path d="M36.1492 95.55C37.6404 95.55 38.8492 94.3412 38.8492 92.85C38.8492 91.3589 37.6404 90.15 36.1492 90.15C34.658 90.15 33.4492 91.3589 33.4492 92.85C33.4492 94.3412 34.658 95.55 36.1492 95.55Z" fill="#FF0000"/>
<path d="M36.1492 111.75C37.6404 111.75 38.8492 110.541 38.8492 109.05C38.8492 107.559 37.6404 106.35 36.1492 106.35C34.658 106.35 33.4492 107.559 33.4492 109.05C33.4492 110.541 34.658 111.75 36.1492 111.75Z" fill="#FF0000"/>
<path d="M36.1492 119.85C37.6404 119.85 38.8492 118.641 38.8492 117.15C38.8492 115.659 37.6404 114.45 36.1492 114.45C34.658 114.45 33.4492 115.659 33.4492 117.15C33.4492 118.641 34.658 119.85 36.1492 119.85Z" fill="#FF0000"/>
<path d="M36.1492 144.15C37.6404 144.15 38.8492 142.941 38.8492 141.45C38.8492 139.959 37.6404 138.75 36.1492 138.75C34.658 138.75 33.4492 139.959 33.4492 141.45C33.4492 142.941 34.658 144.15 36.1492 144.15Z" fill="#FF0000"/>
<path d="M36.1492 184.65C37.6404 184.65 38.8492 183.441 38.8492 181.95C38.8492 180.459 37.6404 179.25 36.1492 179.25C34.658 179.25 33.4492 180.459 33.4492 181.95C33.4492 183.441 34.658 184.65 36.1492 184.65Z" fill="#FF0000"/>
<path d="M36.1492 192.75C37.6404 192.75 38.8492 191.541 38.8492 190.05C38.8492 188.559 37.6404 187.35 36.1492 187.35C34.658 187.35 33.4492 188.559 33.4492 190.05C33.4492 191.541 34.658 192.75 36.1492 192.75Z" fill="#FF0000"/>
<path d="M36.1492 200.85C37.6404 200.85 38.8492 199.641 38.8492 198.15C38.8492 196.659 37.6404 195.45 36.1492 195.45C34.658 195.45 33.4492 196.659 33.4492 198.15C33.4492 199.641 34.658 200.85 36.1492 200.85Z" fill="#FF0000"/>
<path d="M36.1492 208.95C37.6404 208.95 38.8492 207.741 38.8492 206.25C38.8492 204.759 37.6404 203.55 36.1492 203.55C34.658 203.55 33.4492 204.759 33.4492 206.25C33.4492 207.741 34.658 208.95 36.1492 208.95Z" fill="#FF0000"/>
<path d="M36.1492 217.05C37.6404 217.05 38.8492 215.841 38.8492 214.35C38.8492 212.859 37.6404 211.65 36.1492 211.65C34.658 211.65 33.4492 212.859 33.4492 214.35C33.4492 215.841 34.658 217.05 36.1492 217.05Z" fill="#FF0000"/>
<path d="M44.2508 95.55C45.7419 95.55 46.9508 94.3412 46.9508 92.85C46.9508 91.3589 45.7419 90.15 44.2508 90.15C42.7596 90.15 41.5508 91.3589 41.5508 92.85C41.5508 94.3412 42.7596 95.55 44.2508 95.55Z" fill="#FF0000"/>
<path d="M44.2508 127.95C45.7419 127.95 46.9508 126.741 46.9508 125.25C46.9508 123.759 45.7419 122.55 44.2508 122.55C42.7596 122.55 41.5508 123.759 41.5508 125.25C41.5508 126.741 42.7596 127.95 44.2508 127.95Z" fill="#FF0000"/>
<path d="M44.2508 136.05C45.7419 136.05 46.9508 134.841 46.9508 133.35C46.9508 131.859 45.7419 130.65 44.2508 130.65C42.7596 130.65 41.5508 131.859 41.5508 133.35C41.5508 134.841 42.7596 136.05 44.2508 136.05Z" fill="#FF0000"/>
<path d="M44.2508 152.25C45.7419 152.25 46.9508 151.041 46.9508 149.55C46.9508 148.059 45.7419 146.85 44.2508 146.85C42.7596 146.85 41.5508 148.059 41.5508 149.55C41.5508 151.041 42.7596 152.25 44.2508 152.25Z" fill="#FF0000"/>
<path d="M44.2508 184.65C45.7419 184.65 46.9508 183.441 46.9508 181.95C46.9508 180.459 45.7419 179.25 44.2508 179.25C42.7596 179.25 41.5508 180.459 41.5508 181.95C41.5508 183.441 42.7596 184.65 44.2508 184.65Z" fill="#FF0000"/>
<path d="M44.2508 192.75C45.7419 192.75 46.9508 191.541 46.9508 190.05C46.9508 188.559 45.7419 187.35 44.2508 187.35C42.7596 187.35 41.5508 188.559 41.5508 190.05C41.5508 191.541 42.7596 192.75 44.2508 192.75Z" fill="#FF0000"/>
<path d="M44.2508 208.95C45.7419 208.95 46.9508 207.741 46.9508 206.25C46.9508 204.759 45.7419 203.55 44.2508 203.55C42.7596 203.55 41.5508 204.759 41.5508 206.25C41.5508 207.741 42.7596 208.95 44.2508 208.95Z" fill="#FF0000"/>
<path d="M52.3504 87.45C53.8416 87.45 55.0504 86.2412 55.0504 84.75C55.0504 83.2588 53.8416 82.05 52.3504 82.05C50.8592 82.05 49.6504 83.2588 49.6504 84.75C49.6504 86.2412 50.8592 87.45 52.3504 87.45Z" fill="#FF0000"/>
<path d="M52.3504 119.85C53.8416 119.85 55.0504 118.641 55.0504 117.15C55.0504 115.659 53.8416 114.45 52.3504 114.45C50.8592 114.45 49.6504 115.659 49.6504 117.15C49.6504 118.641 50.8592 119.85 52.3504 119.85Z" fill="#FF0000"/>
<path d="M52.3504 127.95C53.8416 127.95 55.0504 126.741 55.0504 125.25C55.0504 123.759 53.8416 122.55 52.3504 122.55C50.8592 122.55 49.6504 123.759 49.6504 125.25C49.6504 126.741 50.8592 127.95 52.3504 127.95Z" fill="#FF0000"/>
<path d="M52.3504 136.05C53.8416 136.05 55.0504 134.841 55.0504 133.35C55.0504 131.859 53.8416 130.65 52.3504 130.65C50.8592 130.65 49.6504 131.859 49.6504 133.35C49.6504 134.841 50.8592 136.05 52.3504 136.05Z" fill="#FF0000"/>
<path d="M52.3504 144.15C53.8416 144.15 55.0504 142.941 55.0504 141.45C55.0504 139.959 53.8416 138.75 52.3504 138.75C50.8592 138.75 49.6504 139.959 49.6504 141.45C49.6504 142.941 50.8592 144.15 52.3504 144.15Z" fill="#FF0000"/>
<path d="M52.3504 176.55C53.8416 176.55 55.0504 175.341 55.0504 173.85C55.0504 172.359 53.8416 171.15 52.3504 171.15C50.8592 171.15 49.6504 172.359 49.6504 173.85C49.6504 175.341 50.8592 176.55 52.3504 176.55Z" fill="#FF0000"/>
<path d="M52.3504 192.75C53.8416 192.75 55.0504 191.541 55.0504 190.05C55.0504 188.559 53.8416 187.35 52.3504 187.35C50.8592 187.35 49.6504 188.559 49.6504 190.05C49.6504 191.541 50.8592 192.75 52.3504 192.75Z" fill="#FF0000"/>
<path d="M52.3504 217.05C53.8416 217.05 55.0504 215.841 55.0504 214.35C55.0504 212.859 53.8416 211.65 52.3504 211.65C50.8592 211.65 49.6504 212.859 49.6504 214.35C49.6504 215.841 50.8592 217.05 52.3504 217.05Z" fill="#FF0000"/>
<path d="M60.45 103.65C61.9412 103.65 63.15 102.441 63.15 100.95C63.15 99.4588 61.9412 98.25 60.45 98.25C58.9588 98.25 57.75 99.4588 57.75 100.95C57.75 102.441 58.9588 103.65 60.45 103.65Z" fill="#FF0000"/>
<path d="M60.45 144.15C61.9412 144.15 63.15 142.941 63.15 141.45C63.15 139.959 61.9412 138.75 60.45 138.75C58.9588 138.75 57.75 139.959 57.75 141.45C57.75 142.941 58.9588 144.15 60.45 144.15Z" fill="#FF0000"/>
<path d="M60.45 152.25C61.9412 152.25 63.15 151.041 63.15 149.55C63.15 148.059 61.9412 146.85 60.45 146.85C58.9588 146.85 57.75 148.059 57.75 149.55C57.75 151.041 58.9588 152.25 60.45 152.25Z" fill="#FF0000"/>
<path d="M60.45 168.45C61.9412 168.45 63.15 167.241 63.15 165.75C63.15 164.259 61.9412 163.05 60.45 163.05C58.9588 163.05 57.75 164.259 57.75 165.75C57.75 167.241 58.9588 168.45 60.45 168.45Z" fill="#FF0000"/>
<path d="M60.45 176.55C61.9412 176.55 63.15 175.341 63.15 173.85C63.15 172.359 61.9412 171.15 60.45 171.15C58.9588 171.15 57.75 172.359 57.75 173.85C57.75 175.341 58.9588 176.55 60.45 176.55Z" fill="#FF0000"/>
<path d="M60.45 200.85C61.9412 200.85 63.15 199.641 63.15 198.15C63.15 196.659 61.9412 195.45 60.45 195.45C58.9588 195.45 57.75 196.659 57.75 198.15C57.75 199.641 58.9588 200.85 60.45 200.85Z" fill="#FF0000"/>
<path d="M68.5496 87.45C70.0408 87.45 71.2496 86.2412 71.2496 84.75C71.2496 83.2588 70.0408 82.05 68.5496 82.05C67.0584 82.05 65.8496 83.2588 65.8496 84.75C65.8496 86.2412 67.0584 87.45 68.5496 87.45Z" fill="#FF0000"/>
<path d="M68.5496 103.65C70.0408 103.65 71.2496 102.441 71.2496 100.95C71.2496 99.4588 70.0408 98.25 68.5496 98.25C67.0584 98.25 65.8496 99.4588 65.8496 100.95C65.8496 102.441 67.0584 103.65 68.5496 103.65Z" fill="#FF0000"/>
<path d="M68.5496 119.85C70.0408 119.85 71.2496 118.641 71.2496 117.15C71.2496 115.659 70.0408 114.45 68.5496 114.45C67.0584 114.45 65.8496 115.659 65.8496 117.15C65.8496 118.641 67.0584 119.85 68.5496 119.85Z" fill="#FF0000"/>
<path d="M68.5496 136.05C70.0408 136.05 71.2496 134.841 71.2496 133.35C71.2496 131.859 70.0408 130.65 68.5496 130.65C67.0584 130.65 65.8496 131.859 65.8496 133.35C65.8496 134.841 67.0584 136.05 68.5496 136.05Z" fill="#FF0000"/>
<path d="M68.5496 152.25C70.0408 152.25 71.2496 151.041 71.2496 149.55C71.2496 148.059 70.0408 146.85 68.5496 146.85C67.0584 146.85 65.8496 148.059 65.8496 149.55C65.8496 151.041 67.0584 152.25 68.5496 152.25Z" fill="#FF0000"/>
<path d="M68.5496 168.45C70.0408 168.45 71.2496 167.241 71.2496 165.75C71.2496 164.259 70.0408 163.05 68.5496 163.05C67.0584 163.05 65.8496 164.259 65.8496 165.75C65.8496 167.241 67.0584 168.45 68.5496 168.45Z" fill="#FF0000"/>
<path d="M68.5496 184.65C70.0408 184.65 71.2496 183.441 71.2496 181.95C71.2496 180.459 70.0408 179.25 68.5496 179.25C67.0584 179.25 65.8496 180.459 65.8496 181.95C65.8496 183.441 67.0584 184.65 68.5496 184.65Z" fill="#FF0000"/>
<path d="M68.5496 200.85C70.0408 200.85 71.2496 199.641 71.2496 198.15C71.2496 196.659 70.0408 195.45 68.5496 195.45C67.0584 195.45 65.8496 196.659 65.8496 198.15C65.8496 199.641 67.0584 200.85 68.5496 200.85Z" fill="#FF0000"/>
<path d="M68.5496 217.05C70.0408 217.05 71.2496 215.841 71.2496 214.35C71.2496 212.859 70.0408 211.65 68.5496 211.65C67.0584 211.65 65.8496 212.859 65.8496 214.35C65.8496 215.841 67.0584 217.05 68.5496 217.05Z" fill="#FF0000"/>
<path d="M76.6492 87.45C78.1404 87.45 79.3492 86.2412 79.3492 84.75C79.3492 83.2588 78.1404 82.05 76.6492 82.05C75.158 82.05 73.9492 83.2588 73.9492 84.75C73.9492 86.2412 75.158 87.45 76.6492 87.45Z" fill="#FF0000"/>
<path d="M76.6492 95.55C78.1404 95.55 79.3492 94.3412 79.3492 92.85C79.3492 91.3589 78.1404 90.15 76.6492 90.15C75.158 90.15 73.9492 91.3589 73.9492 92.85C73.9492 94.3412 75.158 95.55 76.6492 95.55Z" fill="#FF0000"/>
<path d="M76.6492 103.65C78.1404 103.65 79.3492 102.441 79.3492 100.95C79.3492 99.4588 78.1404 98.25 76.6492 98.25C75.158 98.25 73.9492 99.4588 73.9492 100.95C73.9492 102.441 75.158 103.65 76.6492 103.65Z" fill="#FF0000"/>
<path d="M76.6492 168.45C78.1404 168.45 79.3492 167.241 79.3492 165.75C79.3492 164.259 78.1404 163.05 76.6492 163.05C75.158 163.05 73.9492 164.259 73.9492 165.75C73.9492 167.241 75.158 168.45 76.6492 168.45Z" fill="#FF0000"/>
<path d="M76.6492 184.65C78.1404 184.65 79.3492 183.441 79.3492 181.95C79.3492 180.459 78.1404 179.25 76.6492 179.25C75.158 179.25 73.9492 180.459 73.9492 181.95C73.9492 183.441 75.158 184.65 76.6492 184.65Z" fill="#FF0000"/>
<path d="M76.6492 217.05C78.1404 217.05 79.3492 215.841 79.3492 214.35C79.3492 212.859 78.1404 211.65 76.6492 211.65C75.158 211.65 73.9492 212.859 73.9492 214.35C73.9492 215.841 75.158 217.05 76.6492 217.05Z" fill="#FF0000"/>
<path d="M84.7508 63.15C86.2419 63.15 87.4508 61.9412 87.4508 60.45C87.4508 58.9588 86.2419 57.75 84.7508 57.75C83.2596 57.75 82.0508 58.9588 82.0508 60.45C82.0508 61.9412 83.2596 63.15 84.7508 63.15Z" fill="#FF0000"/>
<path d="M84.7508 71.25C86.2419 71.25 87.4508 70.0411 87.4508 68.55C87.4508 67.0588 86.2419 65.85 84.7508 65.85C83.2596 65.85 82.0508 67.0588 82.0508 68.55C82.0508 70.0411 83.2596 71.25 84.7508 71.25Z" fill="#FF0000"/>
<path d="M84.7508 95.55C86.2419 95.55 87.4508 94.3412 87.4508 92.85C87.4508 91.3589 86.2419 90.15 84.7508 90.15C83.2596 90.15 82.0508 91.3589 82.0508 92.85C82.0508 94.3412 83.2596 95.55 84.7508 95.55Z" fill="#FF0000"/>
<path d="M84.7508 119.85C86.2419 119.85 87.4508 118.641 87.4508 117.15C87.4508 115.659 86.2419 114.45 84.7508 114.45C83.2596 114.45 82.0508 115.659 82.0508 117.15C82.0508 118.641 83.2596 119.85 84.7508 119.85Z" fill="#FF0000"/>
<path d="M84.7508 127.95C86.2419 127.95 87.4508 126.741 87.4508 125.25C87.4508 123.759 86.2419 122.55 84.7508 122.55C83.2596 122.55 82.0508 123.759 82.0508 125.25C82.0508 126.741 83.2596 127.95 84.7508 127.95Z" fill="#FF0000"/>
<path d="M84.7508 160.35C86.2419 160.35 87.4508 159.141 87.4508 157.65C87.4508 156.159 86.2419 154.95 84.7508 154.95C83.2596 154.95 82.0508 156.159 82.0508 157.65C82.0508 159.141 83.2596 160.35 84.7508 160.35Z" fill="#FF0000"/>
<path d="M84.7508 168.45C86.2419 168.45 87.4508 167.241 87.4508 165.75C87.4508 164.259 86.2419 163.05 84.7508 163.05C83.2596 163.05 82.0508 164.259 82.0508 165.75C82.0508 167.241 83.2596 168.45 84.7508 168.45Z" fill="#FF0000"/>
<path d="M84.7508 176.55C86.2419 176.55 87.4508 175.341 87.4508 173.85C87.4508 172.359 86.2419 171.15 84.7508 171.15C83.2596 171.15 82.0508 172.359 82.0508 173.85C82.0508 175.341 83.2596 176.55 84.7508 176.55Z" fill="#FF0000"/>
<path d="M84.7508 200.85C86.2419 200.85 87.4508 199.641 87.4508 198.15C87.4508 196.659 86.2419 195.45 84.7508 195.45C83.2596 195.45 82.0508 196.659 82.0508 198.15C82.0508 199.641 83.2596 200.85 84.7508 200.85Z" fill="#FF0000"/>
<path d="M84.7508 233.25C86.2419 233.25 87.4508 232.041 87.4508 230.55C87.4508 229.059 86.2419 227.85 84.7508 227.85C83.2596 227.85 82.0508 229.059 82.0508 230.55C82.0508 232.041 83.2596 233.25 84.7508 233.25Z" fill="#FF0000"/>
<path d="M84.7508 249.45C86.2419 249.45 87.4508 248.241 87.4508 246.75C87.4508 245.259 86.2419 244.05 84.7508 244.05C83.2596 244.05 82.0508 245.259 82.0508 246.75C82.0508 248.241 83.2596 249.45 84.7508 249.45Z" fill="#FF0000"/>
<path d="M84.7508 265.65C86.2419 265.65 87.4508 264.441 87.4508 262.95C87.4508 261.459 86.2419 260.25 84.7508 260.25C83.2596 260.25 82.0508 261.459 82.0508 262.95C82.0508 264.441 83.2596 265.65 84.7508 265.65Z" fill="#FF0000"/>
<path d="M84.7508 281.85C86.2419 281.85 87.4508 280.641 87.4508 279.15C87.4508 277.659 86.2419 276.45 84.7508 276.45C83.2596 276.45 82.0508 277.659 82.0508 279.15C82.0508 280.641 83.2596 281.85 84.7508 281.85Z" fill="#FF0000"/>
<path d="M92.8504 55.05C94.3416 55.05 95.5504 53.8412 95.5504 52.35C95.5504 50.8589 94.3416 49.65 92.8504 49.65C91.3592 49.65 90.1504 50.8589 90.1504 52.35C90.1504 53.8412 91.3592 55.05 92.8504 55.05Z" fill="#FF0000"/>
<path d="M92.8504 63.15C94.3416 63.15 95.5504 61.9412 95.5504 60.45C95.5504 58.9588 94.3416 57.75 92.8504 57.75C91.3592 57.75 90.1504 58.9588 90.1504 60.45C90.1504 61.9412 91.3592 63.15 92.8504 63.15Z" fill="#FF0000"/>
<path d="M92.8504 87.45C94.3416 87.45 95.5504 86.2412 95.5504 84.75C95.5504 83.2588 94.3416 82.05 92.8504 82.05C91.3592 82.05 90.1504 83.2588 90.1504 84.75C90.1504 86.2412 91.3592 87.45 92.8504 87.45Z" fill="#FF0000"/>
<path d="M92.8504 95.55C94.3416 95.55 95.5504 94.3412 95.5504 92.85C95.5504 91.3589 94.3416 90.15 92.8504 90.15C91.3592 90.15 90.1504 91.3589 90.1504 92.85C90.1504 94.3412 91.3592 95.55 92.8504 95.55Z" fill="#FF0000"/>
<path d="M92.8504 103.65C94.3416 103.65 95.5504 102.441 95.5504 100.95C95.5504 99.4588 94.3416 98.25 92.8504 98.25C91.3592 98.25 90.1504 99.4588 90.1504 100.95C90.1504 102.441 91.3592 103.65 92.8504 103.65Z" fill="#FF0000"/>
<path d="M92.8504 111.75C94.3416 111.75 95.5504 110.541 95.5504 109.05C95.5504 107.559 94.3416 106.35 92.8504 106.35C91.3592 106.35 90.1504 107.559 90.1504 109.05C90.1504 110.541 91.3592 111.75 92.8504 111.75Z" fill="#FF0000"/>
<path d="M92.8504 119.85C94.3416 119.85 95.5504 118.641 95.5504 117.15C95.5504 115.659 94.3416 114.45 92.8504 114.45C91.3592 114.45 90.1504 115.659 90.1504 117.15C90.1504 118.641 91.3592 119.85 92.8504 119.85Z" fill="#FF0000"/>
<path d="M92.8504 127.95C94.3416 127.95 95.5504 126.741 95.5504 125.25C95.5504 123.759 94.3416 122.55 92.8504 122.55C91.3592 122.55 90.1504 123.759 90.1504 125.25C90.1504 126.741 91.3592 127.95 92.8504 127.95Z" fill="#FF0000"/>
<path d="M92.8504 136.05C94.3416 136.05 95.5504 134.841 95.5504 133.35C95.5504 131.859 94.3416 130.65 92.8504 130.65C91.3592 130.65 90.1504 131.859 90.1504 133.35C90.1504 134.841 91.3592 136.05 92.8504 136.05Z" fill="#FF0000"/>
<path d="M92.8504 144.15C94.3416 144.15 95.5504 142.941 95.5504 141.45C95.5504 139.959 94.3416 138.75 92.8504 138.75C91.3592 138.75 90.1504 139.959 90.1504 141.45C90.1504 142.941 91.3592 144.15 92.8504 144.15Z" fill="#FF0000"/>
<path d="M92.8504 152.25C94.3416 152.25 95.5504 151.041 95.5504 149.55C95.5504 148.059 94.3416 146.85 92.8504 146.85C91.3592 146.85 90.1504 148.059 90.1504 149.55C90.1504 151.041 91.3592 152.25 92.8504 152.25Z" fill="#FF0000"/>
<path d="M92.8504 160.35C94.3416 160.35 95.5504 159.141 95.5504 157.65C95.5504 156.159 94.3416 154.95 92.8504 154.95C91.3592 154.95 90.1504 156.159 90.1504 157.65C90.1504 159.141 91.3592 160.35 92.8504 160.35Z" fill="#FF0000"/>
<path d="M92.8504 168.45C94.3416 168.45 95.5504 167.241 95.5504 165.75C95.5504 164.259 94.3416 163.05 92.8504 163.05C91.3592 163.05 90.1504 164.259 90.1504 165.75C90.1504 167.241 91.3592 168.45 92.8504 168.45Z" fill="#FF0000"/>
<path d="M92.8504 184.65C94.3416 184.65 95.5504 183.441 95.5504 181.95C95.5504 180.459 94.3416 179.25 92.8504 179.25C91.3592 179.25 90.1504 180.459 90.1504 181.95C90.1504 183.441 91.3592 184.65 92.8504 184.65Z" fill="#FF0000"/>
<path d="M92.8504 192.75C94.3416 192.75 95.5504 191.541 95.5504 190.05C95.5504 188.559 94.3416 187.35 92.8504 187.35C91.3592 187.35 90.1504 188.559 90.1504 190.05C90.1504 191.541 91.3592 192.75 92.8504 192.75Z" fill="#FF0000"/>
<path d="M92.8504 208.95C94.3416 208.95 95.5504 207.741 95.5504 206.25C95.5504 204.759 94.3416 203.55 92.8504 203.55C91.3592 203.55 90.1504 204.759 90.1504 206.25C90.1504 207.741 91.3592 208.95 92.8504 208.95Z" fill="#FF0000"/>
<path d="M92.8504 225.15C94.3416 225.15 95.5504 223.941 95.5504 222.45C95.5504 220.959 94.3416 219.75 92.8504 219.75C91.3592 219.75 90.1504 220.959 90.1504 222.45C90.1504 223.941 91.3592 225.15 92.8504 225.15Z" fill="#FF0000"/>
<path d="M92.8504 241.35C94.3416 241.35 95.5504 240.141 95.5504 238.65C95.5504 237.159 94.3416 235.95 92.8504 235.95C91.3592 235.95 90.1504 237.159 90.1504 238.65C90.1504 240.141 91.3592 241.35 92.8504 241.35Z" fill="#FF0000"/>
<path d="M92.8504 249.45C94.3416 249.45 95.5504 248.241 95.5504 246.75C95.5504 245.259 94.3416 244.05 92.8504 244.05C91.3592 244.05 90.1504 245.259 90.1504 246.75C90.1504 248.241 91.3592 249.45 92.8504 249.45Z" fill="#FF0000"/>
<path d="M92.8504 257.55C94.3416 257.55 95.5504 256.341 95.5504 254.85C95.5504 253.359 94.3416 252.15 92.8504 252.15C91.3592 252.15 90.1504 253.359 90.1504 254.85C90.1504 256.341 91.3592 257.55 92.8504 257.55Z" fill="#FF0000"/>
<path d="M100.95 30.75C102.441 30.75 103.65 29.5411 103.65 28.05C103.65 26.5588 102.441 25.35 100.95 25.35C99.4588 25.35 98.25 26.5588 98.25 28.05C98.25 29.5411 99.4588 30.75 100.95 30.75Z" fill="#FF0000"/>
<path d="M100.95 46.95C102.441 46.95 103.65 45.7412 103.65 44.25C103.65 42.7588 102.441 41.55 100.95 41.55C99.4588 41.55 98.25 42.7588 98.25 44.25C98.25 45.7412 99.4588 46.95 100.95 46.95Z" fill="#FF0000"/>
<path d="M100.95 71.25C102.441 71.25 103.65 70.0411 103.65 68.55C103.65 67.0588 102.441 65.85 100.95 65.85C99.4588 65.85 98.25 67.0588 98.25 68.55C98.25 70.0411 99.4588 71.25 100.95 71.25Z" fill="#FF0000"/>
<path d="M100.95 79.35C102.441 79.35 103.65 78.1412 103.65 76.65C103.65 75.1588 102.441 73.95 100.95 73.95C99.4588 73.95 98.25 75.1588 98.25 76.65C98.25 78.1412 99.4588 79.35 100.95 79.35Z" fill="#FF0000"/>
<path d="M100.95 87.45C102.441 87.45 103.65 86.2412 103.65 84.75C103.65 83.2588 102.441 82.05 100.95 82.05C99.4588 82.05 98.25 83.2588 98.25 84.75C98.25 86.2412 99.4588 87.45 100.95 87.45Z" fill="#FF0000"/>
<path d="M100.95 95.55C102.441 95.55 103.65 94.3412 103.65 92.85C103.65 91.3589 102.441 90.15 100.95 90.15C99.4588 90.15 98.25 91.3589 98.25 92.85C98.25 94.3412 99.4588 95.55 100.95 95.55Z" fill="#FF0000"/>
<path d="M100.95 103.65C102.441 103.65 103.65 102.441 103.65 100.95C103.65 99.4588 102.441 98.25 100.95 98.25C99.4588 98.25 98.25 99.4588 98.25 100.95C98.25 102.441 99.4588 103.65 100.95 103.65Z" fill="#FF0000"/>
<path d="M100.95 119.85C102.441 119.85 103.65 118.641 103.65 117.15C103.65 115.659 102.441 114.45 100.95 114.45C99.4588 114.45 98.25 115.659 98.25 117.15C98.25 118.641 99.4588 119.85 100.95 119.85Z" fill="#FF0000"/>
<path d="M100.95 127.95C102.441 127.95 103.65 126.741 103.65 125.25C103.65 123.759 102.441 122.55 100.95 122.55C99.4588 122.55 98.25 123.759 98.25 125.25C98.25 126.741 99.4588 127.95 100.95 127.95Z" fill="#FF0000"/>
<path d="M100.95 136.05C102.441 136.05 103.65 134.841 103.65 133.35C103.65 131.859 102.441 130.65 100.95 130.65C99.4588 130.65 98.25 131.859 98.25 133.35C98.25 134.841 99.4588 136.05 100.95 136.05Z" fill="#FF0000"/>
<path d="M100.95 184.65C102.441 184.65 103.65 183.441 103.65 181.95C103.65 180.459 102.441 179.25 100.95 179.25C99.4588 179.25 98.25 180.459 98.25 181.95C98.25 183.441 99.4588 184.65 100.95 184.65Z" fill="#FF0000"/>
<path d="M100.95 200.85C102.441 200.85 103.65 199.641 103.65 198.15C103.65 196.659 102.441 195.45 100.95 195.45C99.4588 195.45 98.25 196.659 98.25 198.15C98.25 199.641 99.4588 200.85 100.95 200.85Z" fill="#FF0000"/>
<path d="M100.95 241.35C102.441 241.35 103.65 240.141 103.65 238.65C103.65 237.159 102.441 235.95 100.95 235.95C99.4588 235.95 98.25 237.159 98.25 238.65C98.25 240.141 99.4588 241.35 100.95 241.35Z" fill="#FF0000"/>
<path d="M100.95 257.55C102.441 257.55 103.65 256.341 103.65 254.85C103.65 253.359 102.441 252.15 100.95 252.15C99.4588 252.15 98.25 253.359 98.25 254.85C98.25 256.341 99.4588 257.55 100.95 257.55Z" fill="#FF0000"/>
<path d="M100.95 273.75C102.441 273.75 103.65 272.541 103.65 271.05C103.65 269.559 102.441 268.35 100.95 268.35C99.4588 268.35 98.25 269.559 98.25 271.05C98.25 272.541 99.4588 273.75 100.95 273.75Z" fill="#FF0000"/>
<path d="M109.05 22.65C110.541 22.65 111.75 21.4412 111.75 19.95C111.75 18.4588 110.541 17.25 109.05 17.25C107.558 17.25 106.35 18.4588 106.35 19.95C106.35 21.4412 107.558 22.65 109.05 22.65Z" fill="#FF0000"/>
<path d="M109.05 30.75C110.541 30.75 111.75 29.5411 111.75 28.05C111.75 26.5588 110.541 25.35 109.05 25.35C107.558 25.35 106.35 26.5588 106.35 28.05C106.35 29.5411 107.558 30.75 109.05 30.75Z" fill="#FF0000"/>
<path d="M109.05 55.05C110.541 55.05 111.75 53.8412 111.75 52.35C111.75 50.8589 110.541 49.65 109.05 49.65C107.558 49.65 106.35 50.8589 106.35 52.35C106.35 53.8412 107.558 55.05 109.05 55.05Z" fill="#FF0000"/>
<path d="M109.05 63.15C110.541 63.15 111.75 61.9412 111.75 60.45C111.75 58.9588 110.541 57.75 109.05 57.75C107.558 57.75 106.35 58.9588 106.35 60.45C106.35 61.9412 107.558 63.15 109.05 63.15Z" fill="#FF0000"/>
<path d="M109.05 79.35C110.541 79.35 111.75 78.1412 111.75 76.65C111.75 75.1588 110.541 73.95 109.05 73.95C107.558 73.95 106.35 75.1588 106.35 76.65C106.35 78.1412 107.558 79.35 109.05 79.35Z" fill="#FF0000"/>
<path d="M109.05 103.65C110.541 103.65 111.75 102.441 111.75 100.95C111.75 99.4588 110.541 98.25 109.05 98.25C107.558 98.25 106.35 99.4588 106.35 100.95C106.35 102.441 107.558 103.65 109.05 103.65Z" fill="#FF0000"/>
<path d="M109.05 184.65C110.541 184.65 111.75 183.441 111.75 181.95C111.75 180.459 110.541 179.25 109.05 179.25C107.558 179.25 106.35 180.459 106.35 181.95C106.35 183.441 107.558 184.65 109.05 184.65Z" fill="#FF0000"/>
<path d="M109.05 192.75C110.541 192.75 111.75 191.541 111.75 190.05C111.75 188.559 110.541 187.35 109.05 187.35C107.558 187.35 106.35 188.559 106.35 190.05C106.35 191.541 107.558 192.75 109.05 192.75Z" fill="#FF0000"/>
<path d="M109.05 208.95C110.541 208.95 111.75 207.741 111.75 206.25C111.75 204.759 110.541 203.55 109.05 203.55C107.558 203.55 106.35 204.759 106.35 206.25C106.35 207.741 107.558 208.95 109.05 208.95Z" fill="#FF0000"/>
<path d="M109.05 225.15C110.541 225.15 111.75 223.941 111.75 222.45C111.75 220.959 110.541 219.75 109.05 219.75C107.558 219.75 106.35 220.959 106.35 222.45C106.35 223.941 107.558 225.15 109.05 225.15Z" fill="#FF0000"/>
<path d="M109.05 241.35C110.541 241.35 111.75 240.141 111.75 238.65C111.75 237.159 110.541 235.95 109.05 235.95C107.558 235.95 106.35 237.159 106.35 238.65C106.35 240.141 107.558 241.35 109.05 241.35Z" fill="#FF0000"/>
<path d="M109.05 257.55C110.541 257.55 111.75 256.341 111.75 254.85C111.75 253.359 110.541 252.15 109.05 252.15C107.558 252.15 106.35 253.359 106.35 254.85C106.35 256.341 107.558 257.55 109.05 257.55Z" fill="#FF0000"/>
<path d="M109.05 265.65C110.541 265.65 111.75 264.441 111.75 262.95C111.75 261.459 110.541 260.25 109.05 260.25C107.558 260.25 106.35 261.459 106.35 262.95C106.35 264.441 107.558 265.65 109.05 265.65Z" fill="#FF0000"/>
<path d="M109.05 273.75C110.541 273.75 111.75 272.541 111.75 271.05C111.75 269.559 110.541 268.35 109.05 268.35C107.558 268.35 106.35 269.559 106.35 271.05C106.35 272.541 107.558 273.75 109.05 273.75Z" fill="#FF0000"/>
<path d="M117.149 22.65C118.64 22.65 119.849 21.4412 119.849 19.95C119.849 18.4588 118.64 17.25 117.149 17.25C115.658 17.25 114.449 18.4588 114.449 19.95C114.449 21.4412 115.658 22.65 117.149 22.65Z" fill="#FF0000"/>
<path d="M117.149 38.85C118.64 38.85 119.849 37.6412 119.849 36.15C119.849 34.6588 118.64 33.45 117.149 33.45C115.658 33.45 114.449 34.6588 114.449 36.15C114.449 37.6412 115.658 38.85 117.149 38.85Z" fill="#FF0000"/>
<path d="M117.149 46.95C118.64 46.95 119.849 45.7412 119.849 44.25C119.849 42.7588 118.64 41.55 117.149 41.55C115.658 41.55 114.449 42.7588 114.449 44.25C114.449 45.7412 115.658 46.95 117.149 46.95Z" fill="#FF0000"/>
<path d="M117.149 55.05C118.64 55.05 119.849 53.8412 119.849 52.35C119.849 50.8589 118.64 49.65 117.149 49.65C115.658 49.65 114.449 50.8589 114.449 52.35C114.449 53.8412 115.658 55.05 117.149 55.05Z" fill="#FF0000"/>
<path d="M117.149 63.15C118.64 63.15 119.849 61.9412 119.849 60.45C119.849 58.9588 118.64 57.75 117.149 57.75C115.658 57.75 114.449 58.9588 114.449 60.45C114.449 61.9412 115.658 63.15 117.149 63.15Z" fill="#FF0000"/>
<path d="M117.149 71.25C118.64 71.25 119.849 70.0411 119.849 68.55C119.849 67.0588 118.64 65.85 117.149 65.85C115.658 65.85 114.449 67.0588 114.449 68.55C114.449 70.0411 115.658 71.25 117.149 71.25Z" fill="#FF0000"/>
<path d="M117.149 87.45C118.64 87.45 119.849 86.2412 119.849 84.75C119.849 83.2588 118.64 82.05 117.149 82.05C115.658 82.05 114.449 83.2588 114.449 84.75C114.449 86.2412 115.658 87.45 117.149 87.45Z" fill="#FF0000"/>
<path d="M117.149 95.55C118.64 95.55 119.849 94.3412 119.849 92.85C119.849 91.3589 118.64 90.15 117.149 90.15C115.658 90.15 114.449 91.3589 114.449 92.85C114.449 94.3412 115.658 95.55 117.149 95.55Z" fill="#FF0000"/>
<path d="M117.149 103.65C118.64 103.65 119.849 102.441 119.849 100.95C119.849 99.4588 118.64 98.25 117.149 98.25C115.658 98.25 114.449 99.4588 114.449 100.95C114.449 102.441 115.658 103.65 117.149 103.65Z" fill="#FF0000"/>
<path d="M117.149 184.65C118.64 184.65 119.849 183.441 119.849 181.95C119.849 180.459 118.64 179.25 117.149 179.25C115.658 179.25 114.449 180.459 114.449 181.95C114.449 183.441 115.658 184.65 117.149 184.65Z" fill="#FF0000"/>
<path d="M117.149 192.75C118.64 192.75 119.849 191.541 119.849 190.05C119.849 188.559 118.64 187.35 117.149 187.35C115.658 187.35 114.449 188.559 114.449 190.05C114.449 191.541 115.658 192.75 117.149 192.75Z" fill="#FF0000"/>
<path d="M117.149 217.05C118.64 217.05 119.849 215.841 119.849 214.35C119.849 212.859 118.64 211.65 117.149 211.65C115.658 211.65 114.449 212.859 114.449 214.35C114.449 215.841 115.658 217.05 117.149 217.05Z" fill="#FF0000"/>
<path d="M117.149 233.25C118.64 233.25 119.849 232.041 119.849 230.55C119.849 229.059 118.64 227.85 117.149 227.85C115.658 227.85 114.449 229.059 114.449 230.55C114.449 232.041 115.658 233.25 117.149 233.25Z" fill="#FF0000"/>
<path d="M117.149 241.35C118.64 241.35 119.849 240.141 119.849 238.65C119.849 237.159 118.64 235.95 117.149 235.95C115.658 235.95 114.449 237.159 114.449 238.65C114.449 240.141 115.658 241.35 117.149 241.35Z" fill="#FF0000"/>
<path d="M117.149 249.45C118.64 249.45 119.849 248.241 119.849 246.75C119.849 245.259 118.64 244.05 117.149 244.05C115.658 244.05 114.449 245.259 114.449 246.75C114.449 248.241 115.658 249.45 117.149 249.45Z" fill="#FF0000"/>
<path d="M117.149 257.55C118.64 257.55 119.849 256.341 119.849 254.85C119.849 253.359 118.64 252.15 117.149 252.15C115.658 252.15 114.449 253.359 114.449 254.85C114.449 256.341 115.658 257.55 117.149 257.55Z" fill="#FF0000"/>
<path d="M125.251 22.65C126.742 22.65 127.951 21.4412 127.951 19.95C127.951 18.4588 126.742 17.25 125.251 17.25C123.76 17.25 122.551 18.4588 122.551 19.95C122.551 21.4412 123.76 22.65 125.251 22.65Z" fill="#FF0000"/>
<path d="M125.251 38.85C126.742 38.85 127.951 37.6412 127.951 36.15C127.951 34.6588 126.742 33.45 125.251 33.45C123.76 33.45 122.551 34.6588 122.551 36.15C122.551 37.6412 123.76 38.85 125.251 38.85Z" fill="#FF0000"/>
<path d="M125.251 46.95C126.742 46.95 127.951 45.7412 127.951 44.25C127.951 42.7588 126.742 41.55 125.251 41.55C123.76 41.55 122.551 42.7588 122.551 44.25C122.551 45.7412 123.76 46.95 125.251 46.95Z" fill="#FF0000"/>
<path d="M125.251 55.05C126.742 55.05 127.951 53.8412 127.951 52.35C127.951 50.8589 126.742 49.65 125.251 49.65C123.76 49.65 122.551 50.8589 122.551 52.35C122.551 53.8412 123.76 55.05 125.251 55.05Z" fill="#FF0000"/>
<path d="M125.251 79.35C126.742 79.35 127.951 78.1412 127.951 76.65C127.951 75.1588 126.742 73.95 125.251 73.95C123.76 73.95 122.551 75.1588 122.551 76.65C122.551 78.1412 123.76 79.35 125.251 79.35Z" fill="#FF0000"/>
<path d="M125.251 119.85C126.742 119.85 127.951 118.641 127.951 117.15C127.951 115.659 126.742 114.45 125.251 114.45C123.76 114.45 122.551 115.659 122.551 117.15C122.551 118.641 123.76 119.85 125.251 119.85Z" fill="#FF0000"/>
<path d="M125.251 184.65C126.742 184.65 127.951 183.441 127.951 181.95C127.951 180.459 126.742 179.25 125.251 179.25C123.76 179.25 122.551 180.459 122.551 181.95C122.551 183.441 123.76 184.65 125.251 184.65Z" fill="#FF0000"/>
<path d="M125.251 192.75C126.742 192.75 127.951 191.541 127.951 190.05C127.951 188.559 126.742 187.35 125.251 187.35C123.76 187.35 122.551 188.559 122.551 190.05C122.551 191.541 123.76 192.75 125.251 192.75Z" fill="#FF0000"/>
<path d="M125.251 208.95C126.742 208.95 127.951 207.741 127.951 206.25C127.951 204.759 126.742 203.55 125.251 203.55C123.76 203.55 122.551 204.759 122.551 206.25C122.551 207.741 123.76 208.95 125.251 208.95Z" fill="#FF0000"/>
<path d="M125.251 225.15C126.742 225.15 127.951 223.941 127.951 222.45C127.951 220.959 126.742 219.75 125.251 219.75C123.76 219.75 122.551 220.959 122.551 222.45C122.551 223.941 123.76 225.15 125.251 225.15Z" fill="#FF0000"/>
<path d="M125.251 233.25C126.742 233.25 127.951 232.041 127.951 230.55C127.951 229.059 126.742 227.85 125.251 227.85C123.76 227.85 122.551 229.059 122.551 230.55C122.551 232.041 123.76 233.25 125.251 233.25Z" fill="#FF0000"/>
<path d="M125.251 241.35C126.742 241.35 127.951 240.141 127.951 238.65C127.951 237.159 126.742 235.95 125.251 235.95C123.76 235.95 122.551 237.159 122.551 238.65C122.551 240.141 123.76 241.35 125.251 241.35Z" fill="#FF0000"/>
<path d="M125.251 249.45C126.742 249.45 127.951 248.241 127.951 246.75C127.951 245.259 126.742 244.05 125.251 244.05C123.76 244.05 122.551 245.259 122.551 246.75C122.551 248.241 123.76 249.45 125.251 249.45Z" fill="#FF0000"/>
<path d="M125.251 257.55C126.742 257.55 127.951 256.341 127.951 254.85C127.951 253.359 126.742 252.15 125.251 252.15C123.76 252.15 122.551 253.359 122.551 254.85C122.551 256.341 123.76 257.55 125.251 257.55Z" fill="#FF0000"/>
<path d="M125.251 281.85C126.742 281.85 127.951 280.641 127.951 279.15C127.951 277.659 126.742 276.45 125.251 276.45C123.76 276.45 122.551 277.659 122.551 279.15C122.551 280.641 123.76 281.85 125.251 281.85Z" fill="#FF0000"/>
<path d="M133.35 38.85C134.842 38.85 136.05 37.6412 136.05 36.15C136.05 34.6588 134.842 33.45 133.35 33.45C131.859 33.45 130.65 34.6588 130.65 36.15C130.65 37.6412 131.859 38.85 133.35 38.85Z" fill="#FF0000"/>
<path d="M133.35 55.05C134.842 55.05 136.05 53.8412 136.05 52.35C136.05 50.8589 134.842 49.65 133.35 49.65C131.859 49.65 130.65 50.8589 130.65 52.35C130.65 53.8412 131.859 55.05 133.35 55.05Z" fill="#FF0000"/>
<path d="M133.35 71.25C134.842 71.25 136.05 70.0411 136.05 68.55C136.05 67.0588 134.842 65.85 133.35 65.85C131.859 65.85 130.65 67.0588 130.65 68.55C130.65 70.0411 131.859 71.25 133.35 71.25Z" fill="#FF0000"/>
<path d="M133.35 87.45C134.842 87.45 136.05 86.2412 136.05 84.75C136.05 83.2588 134.842 82.05 133.35 82.05C131.859 82.05 130.65 83.2588 130.65 84.75C130.65 86.2412 131.859 87.45 133.35 87.45Z" fill="#FF0000"/>
<path d="M133.35 95.55C134.842 95.55 136.05 94.3412 136.05 92.85C136.05 91.3589 134.842 90.15 133.35 90.15C131.859 90.15 130.65 91.3589 130.65 92.85C130.65 94.3412 131.859 95.55 133.35 95.55Z" fill="#FF0000"/>
<path d="M133.35 119.85C134.842 119.85 136.05 118.641 136.05 117.15C136.05 115.659 134.842 114.45 133.35 114.45C131.859 114.45 130.65 115.659 130.65 117.15C130.65 118.641 131.859 119.85 133.35 119.85Z" fill="#FF0000"/>
<path d="M133.35 200.85C134.842 200.85 136.05 199.641 136.05 198.15C136.05 196.659 134.842 195.45 133.35 195.45C131.859 195.45 130.65 196.659 130.65 198.15C130.65 199.641 131.859 200.85 133.35 200.85Z" fill="#FF0000"/>
<path d="M133.35 217.05C134.842 217.05 136.05 215.841 136.05 214.35C136.05 212.859 134.842 211.65 133.35 211.65C131.859 211.65 130.65 212.859 130.65 214.35C130.65 215.841 131.859 217.05 133.35 217.05Z" fill="#FF0000"/>
<path d="M133.35 241.35C134.842 241.35 136.05 240.141 136.05 238.65C136.05 237.159 134.842 235.95 133.35 235.95C131.859 235.95 130.65 237.159 130.65 238.65C130.65 240.141 131.859 241.35 133.35 241.35Z" fill="#FF0000"/>
<path d="M133.35 249.45C134.842 249.45 136.05 248.241 136.05 246.75C136.05 245.259 134.842 244.05 133.35 244.05C131.859 244.05 130.65 245.259 130.65 246.75C130.65 248.241 131.859 249.45 133.35 249.45Z" fill="#FF0000"/>
<path d="M133.35 273.75C134.842 273.75 136.05 272.541 136.05 271.05C136.05 269.559 134.842 268.35 133.35 268.35C131.859 268.35 130.65 269.559 130.65 271.05C130.65 272.541 131.859 273.75 133.35 273.75Z" fill="#FF0000"/>
<path d="M141.45 22.65C142.941 22.65 144.15 21.4412 144.15 19.95C144.15 18.4588 142.941 17.25 141.45 17.25C139.959 17.25 138.75 18.4588 138.75 19.95C138.75 21.4412 139.959 22.65 141.45 22.65Z" fill="#FF0000"/>
<path d="M141.45 30.75C142.941 30.75 144.15 29.5411 144.15 28.05C144.15 26.5588 142.941 25.35 141.45 25.35C139.959 25.35 138.75 26.5588 138.75 28.05C138.75 29.5411 139.959 30.75 141.45 30.75Z" fill="#FF0000"/>
<path d="M141.45 38.85C142.941 38.85 144.15 37.6412 144.15 36.15C144.15 34.6588 142.941 33.45 141.45 33.45C139.959 33.45 138.75 34.6588 138.75 36.15C138.75 37.6412 139.959 38.85 141.45 38.85Z" fill="#FF0000"/>
<path d="M141.45 63.15C142.941 63.15 144.15 61.9412 144.15 60.45C144.15 58.9588 142.941 57.75 141.45 57.75C139.959 57.75 138.75 58.9588 138.75 60.45C138.75 61.9412 139.959 63.15 141.45 63.15Z" fill="#FF0000"/>
<path d="M141.45 87.45C142.941 87.45 144.15 86.2412 144.15 84.75C144.15 83.2588 142.941 82.05 141.45 82.05C139.959 82.05 138.75 83.2588 138.75 84.75C138.75 86.2412 139.959 87.45 141.45 87.45Z" fill="#FF0000"/>
<path d="M141.45 208.95C142.941 208.95 144.15 207.741 144.15 206.25C144.15 204.759 142.941 203.55 141.45 203.55C139.959 203.55 138.75 204.759 138.75 206.25C138.75 207.741 139.959 208.95 141.45 208.95Z" fill="#FF0000"/>
<path d="M141.45 225.15C142.941 225.15 144.15 223.941 144.15 222.45C144.15 220.959 142.941 219.75 141.45 219.75C139.959 219.75 138.75 220.959 138.75 222.45C138.75 223.941 139.959 225.15 141.45 225.15Z" fill="#FF0000"/>
<path d="M141.45 233.25C142.941 233.25 144.15 232.041 144.15 230.55C144.15 229.059 142.941 227.85 141.45 227.85C139.959 227.85 138.75 229.059 138.75 230.55C138.75 232.041 139.959 233.25 141.45 233.25Z" fill="#FF0000"/>
<path d="M141.45 241.35C142.941 241.35 144.15 240.141 144.15 238.65C144.15 237.159 142.941 235.95 141.45 235.95C139.959 235.95 138.75 237.159 138.75 238.65C138.75 240.141 139.959 241.35 141.45 241.35Z" fill="#FF0000"/>
<path d="M141.45 257.55C142.941 257.55 144.15 256.341 144.15 254.85C144.15 253.359 142.941 252.15 141.45 252.15C139.959 252.15 138.75 253.359 138.75 254.85C138.75 256.341 139.959 257.55 141.45 257.55Z" fill="#FF0000"/>
<path d="M149.55 30.75C151.041 30.75 152.25 29.5411 152.25 28.05C152.25 26.5588 151.041 25.35 149.55 25.35C148.058 25.35 146.85 26.5588 146.85 28.05C146.85 29.5411 148.058 30.75 149.55 30.75Z" fill="#FF0000"/>
<path d="M149.55 46.95C151.041 46.95 152.25 45.7412 152.25 44.25C152.25 42.7588 151.041 41.55 149.55 41.55C148.058 41.55 146.85 42.7588 146.85 44.25C146.85 45.7412 148.058 46.95 149.55 46.95Z" fill="#FF0000"/>
<path d="M149.55 63.15C151.041 63.15 152.25 61.9412 152.25 60.45C152.25 58.9588 151.041 57.75 149.55 57.75C148.058 57.75 146.85 58.9588 146.85 60.45C146.85 61.9412 148.058 63.15 149.55 63.15Z" fill="#FF0000"/>
<path d="M149.55 71.25C151.041 71.25 152.25 70.0411 152.25 68.55C152.25 67.0588 151.041 65.85 149.55 65.85C148.058 65.85 146.85 67.0588 146.85 68.55C146.85 70.0411 148.058 71.25 149.55 71.25Z" fill="#FF0000"/>
<path d="M149.55 95.55C151.041 95.55 152.25 94.3412 152.25 92.85C152.25 91.3589 151.041 90.15 149.55 90.15C148.058 90.15 146.85 91.3589 146.85 92.85C146.85 94.3412 148.058 95.55 149.55 95.55Z" fill="#FF0000"/>
<path d="M149.55 111.75C151.041 111.75 152.25 110.541 152.25 109.05C152.25 107.559 151.041 106.35 149.55 106.35C148.058 106.35 146.85 107.559 146.85 109.05C146.85 110.541 148.058 111.75 149.55 111.75Z" fill="#FF0000"/>
<path d="M149.55 119.85C151.041 119.85 152.25 118.641 152.25 117.15C152.25 115.659 151.041 114.45 149.55 114.45C148.058 114.45 146.85 115.659 146.85 117.15C146.85 118.641 148.058 119.85 149.55 119.85Z" fill="#FF0000"/>
<path d="M149.55 208.95C151.041 208.95 152.25 207.741 152.25 206.25C152.25 204.759 151.041 203.55 149.55 203.55C148.058 203.55 146.85 204.759 146.85 206.25C146.85 207.741 148.058 208.95 149.55 208.95Z" fill="#FF0000"/>
<path d="M149.55 225.15C151.041 225.15 152.25 223.941 152.25 222.45C152.25 220.959 151.041 219.75 149.55 219.75C148.058 219.75 146.85 220.959 146.85 222.45C146.85 223.941 148.058 225.15 149.55 225.15Z" fill="#FF0000"/>
<path d="M149.55 249.45C151.041 249.45 152.25 248.241 152.25 246.75C152.25 245.259 151.041 244.05 149.55 244.05C148.058 244.05 146.85 245.259 146.85 246.75C146.85 248.241 148.058 249.45 149.55 249.45Z" fill="#FF0000"/>
<path d="M149.55 265.65C151.041 265.65 152.25 264.441 152.25 262.95C152.25 261.459 151.041 260.25 149.55 260.25C148.058 260.25 146.85 261.459 146.85 262.95C146.85 264.441 148.058 265.65 149.55 265.65Z" fill="#FF0000"/>
<path d="M149.55 281.85C151.041 281.85 152.25 280.641 152.25 279.15C152.25 277.659 151.041 276.45 149.55 276.45C148.058 276.45 146.85 277.659 146.85 279.15C146.85 280.641 148.058 281.85 149.55 281.85Z" fill="#FF0000"/>
<path d="M157.649 38.85C159.14 38.85 160.349 37.6412 160.349 36.15C160.349 34.6588 159.14 33.45 157.649 33.45C156.158 33.45 154.949 34.6588 154.949 36.15C154.949 37.6412 156.158 38.85 157.649 38.85Z" fill="#FF0000"/>
<path d="M157.649 79.35C159.14 79.35 160.349 78.1412 160.349 76.65C160.349 75.1588 159.14 73.95 157.649 73.95C156.158 73.95 154.949 75.1588 154.949 76.65C154.949 78.1412 156.158 79.35 157.649 79.35Z" fill="#FF0000"/>
<path d="M157.649 87.45C159.14 87.45 160.349 86.2412 160.349 84.75C160.349 83.2588 159.14 82.05 157.649 82.05C156.158 82.05 154.949 83.2588 154.949 84.75C154.949 86.2412 156.158 87.45 157.649 87.45Z" fill="#FF0000"/>
<path d="M157.649 103.65C159.14 103.65 160.349 102.441 160.349 100.95C160.349 99.4588 159.14 98.25 157.649 98.25C156.158 98.25 154.949 99.4588 154.949 100.95C154.949 102.441 156.158 103.65 157.649 103.65Z" fill="#FF0000"/>
<path d="M157.649 119.85C159.14 119.85 160.349 118.641 160.349 117.15C160.349 115.659 159.14 114.45 157.649 114.45C156.158 114.45 154.949 115.659 154.949 117.15C154.949 118.641 156.158 119.85 157.649 119.85Z" fill="#FF0000"/>
<path d="M157.649 184.65C159.14 184.65 160.349 183.441 160.349 181.95C160.349 180.459 159.14 179.25 157.649 179.25C156.158 179.25 154.949 180.459 154.949 181.95C154.949 183.441 156.158 184.65 157.649 184.65Z" fill="#FF0000"/>
<path d="M157.649 192.75C159.14 192.75 160.349 191.541 160.349 190.05C160.349 188.559 159.14 187.35 157.649 187.35C156.158 187.35 154.949 188.559 154.949 190.05C154.949 191.541 156.158 192.75 157.649 192.75Z" fill="#FF0000"/>
<path d="M157.649 208.95C159.14 208.95 160.349 207.741 160.349 206.25C160.349 204.759 159.14 203.55 157.649 203.55C156.158 203.55 154.949 204.759 154.949 206.25C154.949 207.741 156.158 208.95 157.649 208.95Z" fill="#FF0000"/>
<path d="M157.649 217.05C159.14 217.05 160.349 215.841 160.349 214.35C160.349 212.859 159.14 211.65 157.649 211.65C156.158 211.65 154.949 212.859 154.949 214.35C154.949 215.841 156.158 217.05 157.649 217.05Z" fill="#FF0000"/>
<path d="M157.649 233.25C159.14 233.25 160.349 232.041 160.349 230.55C160.349 229.059 159.14 227.85 157.649 227.85C156.158 227.85 154.949 229.059 154.949 230.55C154.949 232.041 156.158 233.25 157.649 233.25Z" fill="#FF0000"/>
<path d="M157.649 241.35C159.14 241.35 160.349 240.141 160.349 238.65C160.349 237.159 159.14 235.95 157.649 235.95C156.158 235.95 154.949 237.159 154.949 238.65C154.949 240.141 156.158 241.35 157.649 241.35Z" fill="#FF0000"/>
<path d="M165.751 22.65C167.242 22.65 168.451 21.4412 168.451 19.95C168.451 18.4588 167.242 17.25 165.751 17.25C164.26 17.25 163.051 18.4588 163.051 19.95C163.051 21.4412 164.26 22.65 165.751 22.65Z" fill="#FF0000"/>
<path d="M165.751 30.75C167.242 30.75 168.451 29.5411 168.451 28.05C168.451 26.5588 167.242 25.35 165.751 25.35C164.26 25.35 163.051 26.5588 163.051 28.05C163.051 29.5411 164.26 30.75 165.751 30.75Z" fill="#FF0000"/>
<path d="M165.751 38.85C167.242 38.85 168.451 37.6412 168.451 36.15C168.451 34.6588 167.242 33.45 165.751 33.45C164.26 33.45 163.051 34.6588 163.051 36.15C163.051 37.6412 164.26 38.85 165.751 38.85Z" fill="#FF0000"/>
<path d="M165.751 63.15C167.242 63.15 168.451 61.9412 168.451 60.45C168.451 58.9588 167.242 57.75 165.751 57.75C164.26 57.75 163.051 58.9588 163.051 60.45C163.051 61.9412 164.26 63.15 165.751 63.15Z" fill="#FF0000"/>
<path d="M165.751 71.25C167.242 71.25 168.451 70.0411 168.451 68.55C168.451 67.0588 167.242 65.85 165.751 65.85C164.26 65.85 163.051 67.0588 163.051 68.55C163.051 70.0411 164.26 71.25 165.751 71.25Z" fill="#FF0000"/>
<path d="M165.751 87.45C167.242 87.45 168.451 86.2412 168.451 84.75C168.451 83.2588 167.242 82.05 165.751 82.05C164.26 82.05 163.051 83.2588 163.051 84.75C163.051 86.2412 164.26 87.45 165.751 87.45Z" fill="#FF0000"/>
<path d="M165.751 95.55C167.242 95.55 168.451 94.3412 168.451 92.85C168.451 91.3589 167.242 90.15 165.751 90.15C164.26 90.15 163.051 91.3589 163.051 92.85C163.051 94.3412 164.26 95.55 165.751 95.55Z" fill="#FF0000"/>
<path d="M165.751 103.65C167.242 103.65 168.451 102.441 168.451 100.95C168.451 99.4588 167.242 98.25 165.751 98.25C164.26 98.25 163.051 99.4588 163.051 100.95C163.051 102.441 164.26 103.65 165.751 103.65Z" fill="#FF0000"/>
<path d="M165.751 184.65C167.242 184.65 168.451 183.441 168.451 181.95C168.451 180.459 167.242 179.25 165.751 179.25C164.26 179.25 163.051 180.459 163.051 181.95C163.051 183.441 164.26 184.65 165.751 184.65Z" fill="#FF0000"/>
<path d="M165.751 208.95C167.242 208.95 168.451 207.741 168.451 206.25C168.451 204.759 167.242 203.55 165.751 203.55C164.26 203.55 163.051 204.759 163.051 206.25C163.051 207.741 164.26 208.95 165.751 208.95Z" fill="#FF0000"/>
<path d="M165.751 225.15C167.242 225.15 168.451 223.941 168.451 222.45C168.451 220.959 167.242 219.75 165.751 219.75C164.26 219.75 163.051 220.959 163.051 222.45C163.051 223.941 164.26 225.15 165.751 225.15Z" fill="#FF0000"/>
<path d="M165.751 233.25C167.242 233.25 168.451 232.041 168.451 230.55C168.451 229.059 167.242 227.85 165.751 227.85C164.26 227.85 163.051 229.059 163.051 230.55C163.051 232.041 164.26 233.25 165.751 233.25Z" fill="#FF0000"/>
<path d="M165.751 257.55C167.242 257.55 168.451 256.341 168.451 254.85C168.451 253.359 167.242 252.15 165.751 252.15C164.26 252.15 163.051 253.359 163.051 254.85C163.051 256.341 164.26 257.55 165.751 257.55Z" fill="#FF0000"/>
<path d="M165.751 265.65C167.242 265.65 168.451 264.441 168.451 262.95C168.451 261.459 167.242 260.25 165.751 260.25C164.26 260.25 163.051 261.459 163.051 262.95C163.051 264.441 164.26 265.65 165.751 265.65Z" fill="#FF0000"/>
<path d="M165.751 273.75C167.242 273.75 168.451 272.541 168.451 271.05C168.451 269.559 167.242 268.35 165.751 268.35C164.26 268.35 163.051 269.559 163.051 271.05C163.051 272.541 164.26 273.75 165.751 273.75Z" fill="#FF0000"/>
<path d="M165.751 281.85C167.242 281.85 168.451 280.641 168.451 279.15C168.451 277.659 167.242 276.45 165.751 276.45C164.26 276.45 163.051 277.659 163.051 279.15C163.051 280.641 164.26 281.85 165.751 281.85Z" fill="#FF0000"/>
<path d="M173.85 22.65C175.342 22.65 176.55 21.4412 176.55 19.95C176.55 18.4588 175.342 17.25 173.85 17.25C172.359 17.25 171.15 18.4588 171.15 19.95C171.15 21.4412 172.359 22.65 173.85 22.65Z" fill="#FF0000"/>
<path d="M173.85 38.85C175.342 38.85 176.55 37.6412 176.55 36.15C176.55 34.6588 175.342 33.45 173.85 33.45C172.359 33.45 171.15 34.6588 171.15 36.15C171.15 37.6412 172.359 38.85 173.85 38.85Z" fill="#FF0000"/>
<path d="M173.85 55.05C175.342 55.05 176.55 53.8412 176.55 52.35C176.55 50.8589 175.342 49.65 173.85 49.65C172.359 49.65 171.15 50.8589 171.15 52.35C171.15 53.8412 172.359 55.05 173.85 55.05Z" fill="#FF0000"/>
<path d="M173.85 87.45C175.342 87.45 176.55 86.2412 176.55 84.75C176.55 83.2588 175.342 82.05 173.85 82.05C172.359 82.05 171.15 83.2588 171.15 84.75C171.15 86.2412 172.359 87.45 173.85 87.45Z" fill="#FF0000"/>
<path d="M173.85 95.55C175.342 95.55 176.55 94.3412 176.55 92.85C176.55 91.3589 175.342 90.15 173.85 90.15C172.359 90.15 171.15 91.3589 171.15 92.85C171.15 94.3412 172.359 95.55 173.85 95.55Z" fill="#FF0000"/>
<path d="M173.85 119.85C175.342 119.85 176.55 118.641 176.55 117.15C176.55 115.659 175.342 114.45 173.85 114.45C172.359 114.45 171.15 115.659 171.15 117.15C171.15 118.641 172.359 119.85 173.85 119.85Z" fill="#FF0000"/>
<path d="M173.85 184.65C175.342 184.65 176.55 183.441 176.55 181.95C176.55 180.459 175.342 179.25 173.85 179.25C172.359 179.25 171.15 180.459 171.15 181.95C171.15 183.441 172.359 184.65 173.85 184.65Z" fill="#FF0000"/>
<path d="M173.85 200.85C175.342 200.85 176.55 199.641 176.55 198.15C176.55 196.659 175.342 195.45 173.85 195.45C172.359 195.45 171.15 196.659 171.15 198.15C171.15 199.641 172.359 200.85 173.85 200.85Z" fill="#FF0000"/>
<path d="M173.85 208.95C175.342 208.95 176.55 207.741 176.55 206.25C176.55 204.759 175.342 203.55 173.85 203.55C172.359 203.55 171.15 204.759 171.15 206.25C171.15 207.741 172.359 208.95 173.85 208.95Z" fill="#FF0000"/>
<path d="M173.85 217.05C175.342 217.05 176.55 215.841 176.55 214.35C176.55 212.859 175.342 211.65 173.85 211.65C172.359 211.65 171.15 212.859 171.15 214.35C171.15 215.841 172.359 217.05 173.85 217.05Z" fill="#FF0000"/>
<path d="M173.85 225.15C175.342 225.15 176.55 223.941 176.55 222.45C176.55 220.959 175.342 219.75 173.85 219.75C172.359 219.75 171.15 220.959 171.15 222.45C171.15 223.941 172.359 225.15 173.85 225.15Z" fill="#FF0000"/>
<path d="M173.85 257.55C175.342 257.55 176.55 256.341 176.55 254.85C176.55 253.359 175.342 252.15 173.85 252.15C172.359 252.15 171.15 253.359 171.15 254.85C171.15 256.341 172.359 257.55 173.85 257.55Z" fill="#FF0000"/>
<path d="M173.85 265.65C175.342 265.65 176.55 264.441 176.55 262.95C176.55 261.459 175.342 260.25 173.85 260.25C172.359 260.25 171.15 261.459 171.15 262.95C171.15 264.441 172.359 265.65 173.85 265.65Z" fill="#FF0000"/>
<path d="M173.85 281.85C175.342 281.85 176.55 280.641 176.55 279.15C176.55 277.659 175.342 276.45 173.85 276.45C172.359 276.45 171.15 277.659 171.15 279.15C171.15 280.641 172.359 281.85 173.85 281.85Z" fill="#FF0000"/>
<path d="M181.95 22.65C183.441 22.65 184.65 21.4412 184.65 19.95C184.65 18.4588 183.441 17.25 181.95 17.25C180.459 17.25 179.25 18.4588 179.25 19.95C179.25 21.4412 180.459 22.65 181.95 22.65Z" fill="#FF0000"/>
<path d="M181.95 55.05C183.441 55.05 184.65 53.8412 184.65 52.35C184.65 50.8589 183.441 49.65 181.95 49.65C180.459 49.65 179.25 50.8589 179.25 52.35C179.25 53.8412 180.459 55.05 181.95 55.05Z" fill="#FF0000"/>
<path d="M181.95 63.15C183.441 63.15 184.65 61.9412 184.65 60.45C184.65 58.9588 183.441 57.75 181.95 57.75C180.459 57.75 179.25 58.9588 179.25 60.45C179.25 61.9412 180.459 63.15 181.95 63.15Z" fill="#FF0000"/>
<path d="M181.95 71.25C183.441 71.25 184.65 70.0411 184.65 68.55C184.65 67.0588 183.441 65.85 181.95 65.85C180.459 65.85 179.25 67.0588 179.25 68.55C179.25 70.0411 180.459 71.25 181.95 71.25Z" fill="#FF0000"/>
<path d="M181.95 111.75C183.441 111.75 184.65 110.541 184.65 109.05C184.65 107.559 183.441 106.35 181.95 106.35C180.459 106.35 179.25 107.559 179.25 109.05C179.25 110.541 180.459 111.75 181.95 111.75Z" fill="#FF0000"/>
<path d="M181.95 200.85C183.441 200.85 184.65 199.641 184.65 198.15C184.65 196.659 183.441 195.45 181.95 195.45C180.459 195.45 179.25 196.659 179.25 198.15C179.25 199.641 180.459 200.85 181.95 200.85Z" fill="#FF0000"/>
<path d="M181.95 217.05C183.441 217.05 184.65 215.841 184.65 214.35C184.65 212.859 183.441 211.65 181.95 211.65C180.459 211.65 179.25 212.859 179.25 214.35C179.25 215.841 180.459 217.05 181.95 217.05Z" fill="#FF0000"/>
<path d="M181.95 249.45C183.441 249.45 184.65 248.241 184.65 246.75C184.65 245.259 183.441 244.05 181.95 244.05C180.459 244.05 179.25 245.259 179.25 246.75C179.25 248.241 180.459 249.45 181.95 249.45Z" fill="#FF0000"/>
<path d="M181.95 257.55C183.441 257.55 184.65 256.341 184.65 254.85C184.65 253.359 183.441 252.15 181.95 252.15C180.459 252.15 179.25 253.359 179.25 254.85C179.25 256.341 180.459 257.55 181.95 257.55Z" fill="#FF0000"/>
<path d="M181.95 281.85C183.441 281.85 184.65 280.641 184.65 279.15C184.65 277.659 183.441 276.45 181.95 276.45C180.459 276.45 179.25 277.659 179.25 279.15C179.25 280.641 180.459 281.85 181.95 281.85Z" fill="#FF0000"/>
<path d="M190.05 22.65C191.541 22.65 192.75 21.4412 192.75 19.95C192.75 18.4588 191.541 17.25 190.05 17.25C188.558 17.25 187.35 18.4588 187.35 19.95C187.35 21.4412 188.558 22.65 190.05 22.65Z" fill="#FF0000"/>
<path d="M190.05 30.75C191.541 30.75 192.75 29.5411 192.75 28.05C192.75 26.5588 191.541 25.35 190.05 25.35C188.558 25.35 187.35 26.5588 187.35 28.05C187.35 29.5411 188.558 30.75 190.05 30.75Z" fill="#FF0000"/>
<path d="M190.05 38.85C191.541 38.85 192.75 37.6412 192.75 36.15C192.75 34.6588 191.541 33.45 190.05 33.45C188.558 33.45 187.35 34.6588 187.35 36.15C187.35 37.6412 188.558 38.85 190.05 38.85Z" fill="#FF0000"/>
<path d="M190.05 46.95C191.541 46.95 192.75 45.7412 192.75 44.25C192.75 42.7588 191.541 41.55 190.05 41.55C188.558 41.55 187.35 42.7588 187.35 44.25C187.35 45.7412 188.558 46.95 190.05 46.95Z" fill="#FF0000"/>
<path d="M190.05 55.05C191.541 55.05 192.75 53.8412 192.75 52.35C192.75 50.8589 191.541 49.65 190.05 49.65C188.558 49.65 187.35 50.8589 187.35 52.35C187.35 53.8412 188.558 55.05 190.05 55.05Z" fill="#FF0000"/>
<path d="M190.05 63.15C191.541 63.15 192.75 61.9412 192.75 60.45C192.75 58.9588 191.541 57.75 190.05 57.75C188.558 57.75 187.35 58.9588 187.35 60.45C187.35 61.9412 188.558 63.15 190.05 63.15Z" fill="#FF0000"/>
<path d="M190.05 87.45C191.541 87.45 192.75 86.2412 192.75 84.75C192.75 83.2588 191.541 82.05 190.05 82.05C188.558 82.05 187.35 83.2588 187.35 84.75C187.35 86.2412 188.558 87.45 190.05 87.45Z" fill="#FF0000"/>
<path d="M190.05 103.65C191.541 103.65 192.75 102.441 192.75 100.95C192.75 99.4588 191.541 98.25 190.05 98.25C188.558 98.25 187.35 99.4588 187.35 100.95C187.35 102.441 188.558 103.65 190.05 103.65Z" fill="#FF0000"/>
<path d="M190.05 111.75C191.541 111.75 192.75 110.541 192.75 109.05C192.75 107.559 191.541 106.35 190.05 106.35C188.558 106.35 187.35 107.559 187.35 109.05C187.35 110.541 188.558 111.75 190.05 111.75Z" fill="#FF0000"/>
<path d="M190.05 200.85C191.541 200.85 192.75 199.641 192.75 198.15C192.75 196.659 191.541 195.45 190.05 195.45C188.558 195.45 187.35 196.659 187.35 198.15C187.35 199.641 188.558 200.85 190.05 200.85Z" fill="#FF0000"/>
<path d="M190.05 225.15C191.541 225.15 192.75 223.941 192.75 222.45C192.75 220.959 191.541 219.75 190.05 219.75C188.558 219.75 187.35 220.959 187.35 222.45C187.35 223.941 188.558 225.15 190.05 225.15Z" fill="#FF0000"/>
<path d="M190.05 233.25C191.541 233.25 192.75 232.041 192.75 230.55C192.75 229.059 191.541 227.85 190.05 227.85C188.558 227.85 187.35 229.059 187.35 230.55C187.35 232.041 188.558 233.25 190.05 233.25Z" fill="#FF0000"/>
<path d="M190.05 241.35C191.541 241.35 192.75 240.141 192.75 238.65C192.75 237.159 191.541 235.95 190.05 235.95C188.558 235.95 187.35 237.159 187.35 238.65C187.35 240.141 188.558 241.35 190.05 241.35Z" fill="#FF0000"/>
<path d="M190.05 249.45C191.541 249.45 192.75 248.241 192.75 246.75C192.75 245.259 191.541 244.05 190.05 244.05C188.558 244.05 187.35 245.259 187.35 246.75C187.35 248.241 188.558 249.45 190.05 249.45Z" fill="#FF0000"/>
<path d="M190.05 257.55C191.541 257.55 192.75 256.341 192.75 254.85C192.75 253.359 191.541 252.15 190.05 252.15C188.558 252.15 187.35 253.359 187.35 254.85C187.35 256.341 188.558 257.55 190.05 257.55Z" fill="#FF0000"/>
<path d="M190.05 265.65C191.541 265.65 192.75 264.441 192.75 262.95C192.75 261.459 191.541 260.25 190.05 260.25C188.558 260.25 187.35 261.459 187.35 262.95C187.35 264.441 188.558 265.65 190.05 265.65Z" fill="#FF0000"/>
<path d="M198.149 22.65C199.64 22.65 200.849 21.4412 200.849 19.95C200.849 18.4588 199.64 17.25 198.149 17.25C196.658 17.25 195.449 18.4588 195.449 19.95C195.449 21.4412 196.658 22.65 198.149 22.65Z" fill="#FF0000"/>
<path d="M198.149 55.05C199.64 55.05 200.849 53.8412 200.849 52.35C200.849 50.8589 199.64 49.65 198.149 49.65C196.658 49.65 195.449 50.8589 195.449 52.35C195.449 53.8412 196.658 55.05 198.149 55.05Z" fill="#FF0000"/>
<path d="M198.149 71.25C199.64 71.25 200.849 70.0411 200.849 68.55C200.849 67.0588 199.64 65.85 198.149 65.85C196.658 65.85 195.449 67.0588 195.449 68.55C195.449 70.0411 196.658 71.25 198.149 71.25Z" fill="#FF0000"/>
<path d="M198.149 87.45C199.64 87.45 200.849 86.2412 200.849 84.75C200.849 83.2588 199.64 82.05 198.149 82.05C196.658 82.05 195.449 83.2588 195.449 84.75C195.449 86.2412 196.658 87.45 198.149 87.45Z" fill="#FF0000"/>
<path d="M198.149 111.75C199.64 111.75 200.849 110.541 200.849 109.05C200.849 107.559 199.64 106.35 198.149 106.35C196.658 106.35 195.449 107.559 195.449 109.05C195.449 110.541 196.658 111.75 198.149 111.75Z" fill="#FF0000"/>
<path d="M198.149 144.15C199.64 144.15 200.849 142.941 200.849 141.45C200.849 139.959 199.64 138.75 198.149 138.75C196.658 138.75 195.449 139.959 195.449 141.45C195.449 142.941 196.658 144.15 198.149 144.15Z" fill="#FF0000"/>
<path d="M198.149 160.35C199.64 160.35 200.849 159.141 200.849 157.65C200.849 156.159 199.64 154.95 198.149 154.95C196.658 154.95 195.449 156.159 195.449 157.65C195.449 159.141 196.658 160.35 198.149 160.35Z" fill="#FF0000"/>
<path d="M198.149 168.45C199.64 168.45 200.849 167.241 200.849 165.75C200.849 164.259 199.64 163.05 198.149 163.05C196.658 163.05 195.449 164.259 195.449 165.75C195.449 167.241 196.658 168.45 198.149 168.45Z" fill="#FF0000"/>
<path d="M198.149 192.75C199.64 192.75 200.849 191.541 200.849 190.05C200.849 188.559 199.64 187.35 198.149 187.35C196.658 187.35 195.449 188.559 195.449 190.05C195.449 191.541 196.658 192.75 198.149 192.75Z" fill="#FF0000"/>
<path d="M198.149 208.95C199.64 208.95 200.849 207.741 200.849 206.25C200.849 204.759 199.64 203.55 198.149 203.55C196.658 203.55 195.449 204.759 195.449 206.25C195.449 207.741 196.658 208.95 198.149 208.95Z" fill="#FF0000"/>
<path d="M198.149 217.05C199.64 217.05 200.849 215.841 200.849 214.35C200.849 212.859 199.64 211.65 198.149 211.65C196.658 211.65 195.449 212.859 195.449 214.35C195.449 215.841 196.658 217.05 198.149 217.05Z" fill="#FF0000"/>
<path d="M198.149 257.55C199.64 257.55 200.849 256.341 200.849 254.85C200.849 253.359 199.64 252.15 198.149 252.15C196.658 252.15 195.449 253.359 195.449 254.85C195.449 256.341 196.658 257.55 198.149 257.55Z" fill="#FF0000"/>
<path d="M198.149 265.65C199.64 265.65 200.849 264.441 200.849 262.95C200.849 261.459 199.64 260.25 198.149 260.25C196.658 260.25 195.449 261.459 195.449 262.95C195.449 264.441 196.658 265.65 198.149 265.65Z" fill="#FF0000"/>
<path d="M206.251 22.65C207.742 22.65 208.951 21.4412 208.951 19.95C208.951 18.4588 207.742 17.25 206.251 17.25C204.76 17.25 203.551 18.4588 203.551 19.95C203.551 21.4412 204.76 22.65 206.251 22.65Z" fill="#FF0000"/>
<path d="M206.251 46.95C207.742 46.95 208.951 45.7412 208.951 44.25C208.951 42.7588 207.742 41.55 206.251 41.55C204.76 41.55 203.551 42.7588 203.551 44.25C203.551 45.7412 204.76 46.95 206.251 46.95Z" fill="#FF0000"/>
<path d="M206.251 55.05C207.742 55.05 208.951 53.8412 208.951 52.35C208.951 50.8589 207.742 49.65 206.251 49.65C204.76 49.65 203.551 50.8589 203.551 52.35C203.551 53.8412 204.76 55.05 206.251 55.05Z" fill="#FF0000"/>
<path d="M206.251 79.35C207.742 79.35 208.951 78.1412 208.951 76.65C208.951 75.1588 207.742 73.95 206.251 73.95C204.76 73.95 203.551 75.1588 203.551 76.65C203.551 78.1412 204.76 79.35 206.251 79.35Z" fill="#FF0000"/>
<path d="M206.251 87.45C207.742 87.45 208.951 86.2412 208.951 84.75C208.951 83.2588 207.742 82.05 206.251 82.05C204.76 82.05 203.551 83.2588 203.551 84.75C203.551 86.2412 204.76 87.45 206.251 87.45Z" fill="#FF0000"/>
<path d="M206.251 95.55C207.742 95.55 208.951 94.3412 208.951 92.85C208.951 91.3589 207.742 90.15 206.251 90.15C204.76 90.15 203.551 91.3589 203.551 92.85C203.551 94.3412 204.76 95.55 206.251 95.55Z" fill="#FF0000"/>
<path d="M206.251 103.65C207.742 103.65 208.951 102.441 208.951 100.95C208.951 99.4588 207.742 98.25 206.251 98.25C204.76 98.25 203.551 99.4588 203.551 100.95C203.551 102.441 204.76 103.65 206.251 103.65Z" fill="#FF0000"/>
<path d="M206.251 111.75C207.742 111.75 208.951 110.541 208.951 109.05C208.951 107.559 207.742 106.35 206.251 106.35C204.76 106.35 203.551 107.559 203.551 109.05C203.551 110.541 204.76 111.75 206.251 111.75Z" fill="#FF0000"/>
<path d="M206.251 119.85C207.742 119.85 208.951 118.641 208.951 117.15C208.951 115.659 207.742 114.45 206.251 114.45C204.76 114.45 203.551 115.659 203.551 117.15C203.551 118.641 204.76 119.85 206.251 119.85Z" fill="#FF0000"/>
<path d="M206.251 127.95C207.742 127.95 208.951 126.741 208.951 125.25C208.951 123.759 207.742 122.55 206.251 122.55C204.76 122.55 203.551 123.759 203.551 125.25C203.551 126.741 204.76 127.95 206.251 127.95Z" fill="#FF0000"/>
<path d="M206.251 152.25C207.742 152.25 208.951 151.041 208.951 149.55C208.951 148.059 207.742 146.85 206.251 146.85C204.76 146.85 203.551 148.059 203.551 149.55C203.551 151.041 204.76 152.25 206.251 152.25Z" fill="#FF0000"/>
<path d="M206.251 176.55C207.742 176.55 208.951 175.341 208.951 173.85C208.951 172.359 207.742 171.15 206.251 171.15C204.76 171.15 203.551 172.359 203.551 173.85C203.551 175.341 204.76 176.55 206.251 176.55Z" fill="#FF0000"/>
<path d="M206.251 184.65C207.742 184.65 208.951 183.441 208.951 181.95C208.951 180.459 207.742 179.25 206.251 179.25C204.76 179.25 203.551 180.459 203.551 181.95C203.551 183.441 204.76 184.65 206.251 184.65Z" fill="#FF0000"/>
<path d="M206.251 200.85C207.742 200.85 208.951 199.641 208.951 198.15C208.951 196.659 207.742 195.45 206.251 195.45C204.76 195.45 203.551 196.659 203.551 198.15C203.551 199.641 204.76 200.85 206.251 200.85Z" fill="#FF0000"/>
<path d="M206.251 208.95C207.742 208.95 208.951 207.741 208.951 206.25C208.951 204.759 207.742 203.55 206.251 203.55C204.76 203.55 203.551 204.759 203.551 206.25C203.551 207.741 204.76 208.95 206.251 208.95Z" fill="#FF0000"/>
<path d="M206.251 241.35C207.742 241.35 208.951 240.141 208.951 238.65C208.951 237.159 207.742 235.95 206.251 235.95C204.76 235.95 203.551 237.159 203.551 238.65C203.551 240.141 204.76 241.35 206.251 241.35Z" fill="#FF0000"/>
<path d="M206.251 249.45C207.742 249.45 208.951 248.241 208.951 246.75C208.951 245.259 207.742 244.05 206.251 244.05C204.76 244.05 203.551 245.259 203.551 246.75C203.551 248.241 204.76 249.45 206.251 249.45Z" fill="#FF0000"/>
<path d="M206.251 265.65C207.742 265.65 208.951 264.441 208.951 262.95C208.951 261.459 207.742 260.25 206.251 260.25C204.76 260.25 203.551 261.459 203.551 262.95C203.551 264.441 204.76 265.65 206.251 265.65Z" fill="#FF0000"/>
<path d="M206.251 273.75C207.742 273.75 208.951 272.541 208.951 271.05C208.951 269.559 207.742 268.35 206.251 268.35C204.76 268.35 203.551 269.559 203.551 271.05C203.551 272.541 204.76 273.75 206.251 273.75Z" fill="#FF0000"/>
<path d="M214.35 22.65C215.842 22.65 217.05 21.4412 217.05 19.95C217.05 18.4588 215.842 17.25 214.35 17.25C212.859 17.25 211.65 18.4588 211.65 19.95C211.65 21.4412 212.859 22.65 214.35 22.65Z" fill="#FF0000"/>
<path d="M214.35 30.75C215.842 30.75 217.05 29.5411 217.05 28.05C217.05 26.5588 215.842 25.35 214.35 25.35C212.859 25.35 211.65 26.5588 211.65 28.05C211.65 29.5411 212.859 30.75 214.35 30.75Z" fill="#FF0000"/>
<path d="M214.35 71.25C215.842 71.25 217.05 70.0411 217.05 68.55C217.05 67.0588 215.842 65.85 214.35 65.85C212.859 65.85 211.65 67.0588 211.65 68.55C211.65 70.0411 212.859 71.25 214.35 71.25Z" fill="#FF0000"/>
<path d="M214.35 119.85C215.842 119.85 217.05 118.641 217.05 117.15C217.05 115.659 215.842 114.45 214.35 114.45C212.859 114.45 211.65 115.659 211.65 117.15C211.65 118.641 212.859 119.85 214.35 119.85Z" fill="#FF0000"/>
<path d="M214.35 127.95C215.842 127.95 217.05 126.741 217.05 125.25C217.05 123.759 215.842 122.55 214.35 122.55C212.859 122.55 211.65 123.759 211.65 125.25C211.65 126.741 212.859 127.95 214.35 127.95Z" fill="#FF0000"/>
<path d="M214.35 160.35C215.842 160.35 217.05 159.141 217.05 157.65C217.05 156.159 215.842 154.95 214.35 154.95C212.859 154.95 211.65 156.159 211.65 157.65C211.65 159.141 212.859 160.35 214.35 160.35Z" fill="#FF0000"/>
<path d="M214.35 168.45C215.842 168.45 217.05 167.241 217.05 165.75C217.05 164.259 215.842 163.05 214.35 163.05C212.859 163.05 211.65 164.259 211.65 165.75C211.65 167.241 212.859 168.45 214.35 168.45Z" fill="#FF0000"/>
<path d="M214.35 176.55C215.842 176.55 217.05 175.341 217.05 173.85C217.05 172.359 215.842 171.15 214.35 171.15C212.859 171.15 211.65 172.359 211.65 173.85C211.65 175.341 212.859 176.55 214.35 176.55Z" fill="#FF0000"/>
<path d="M214.35 192.75C215.842 192.75 217.05 191.541 217.05 190.05C217.05 188.559 215.842 187.35 214.35 187.35C212.859 187.35 211.65 188.559 211.65 190.05C211.65 191.541 212.859 192.75 214.35 192.75Z" fill="#FF0000"/>
<path d="M214.35 217.05C215.842 217.05 217.05 215.841 217.05 214.35C217.05 212.859 215.842 211.65 214.35 211.65C212.859 211.65 211.65 212.859 211.65 214.35C211.65 215.841 212.859 217.05 214.35 217.05Z" fill="#FF0000"/>
<path d="M214.35 225.15C215.842 225.15 217.05 223.941 217.05 222.45C217.05 220.959 215.842 219.75 214.35 219.75C212.859 219.75 211.65 220.959 211.65 222.45C211.65 223.941 212.859 225.15 214.35 225.15Z" fill="#FF0000"/>
<path d="M214.35 233.25C215.842 233.25 217.05 232.041 217.05 230.55C217.05 229.059 215.842 227.85 214.35 227.85C212.859 227.85 211.65 229.059 211.65 230.55C211.65 232.041 212.859 233.25 214.35 233.25Z" fill="#FF0000"/>
<path d="M214.35 241.35C215.842 241.35 217.05 240.141 217.05 238.65C217.05 237.159 215.842 235.95 214.35 235.95C212.859 235.95 211.65 237.159 211.65 238.65C211.65 240.141 212.859 241.35 214.35 241.35Z" fill="#FF0000"/>
<path d="M214.35 249.45C215.842 249.45 217.05 248.241 217.05 246.75C217.05 245.259 215.842 244.05 214.35 244.05C212.859 244.05 211.65 245.259 211.65 246.75C211.65 248.241 212.859 249.45 214.35 249.45Z" fill="#FF0000"/>
<path d="M214.35 257.55C215.842 257.55 217.05 256.341 217.05 254.85C217.05 253.359 215.842 252.15 214.35 252.15C212.859 252.15 211.65 253.359 211.65 254.85C211.65 256.341 212.859 257.55 214.35 257.55Z" fill="#FF0000"/>
<path d="M222.45 87.45C223.941 87.45 225.15 86.2412 225.15 84.75C225.15 83.2588 223.941 82.05 222.45 82.05C220.959 82.05 219.75 83.2588 219.75 84.75C219.75 86.2412 220.959 87.45 222.45 87.45Z" fill="#FF0000"/>
<path d="M222.45 95.55C223.941 95.55 225.15 94.3412 225.15 92.85C225.15 91.3589 223.941 90.15 222.45 90.15C220.959 90.15 219.75 91.3589 219.75 92.85C219.75 94.3412 220.959 95.55 222.45 95.55Z" fill="#FF0000"/>
<path d="M222.45 103.65C223.941 103.65 225.15 102.441 225.15 100.95C225.15 99.4588 223.941 98.25 222.45 98.25C220.959 98.25 219.75 99.4588 219.75 100.95C219.75 102.441 220.959 103.65 222.45 103.65Z" fill="#FF0000"/>
<path d="M222.45 119.85C223.941 119.85 225.15 118.641 225.15 117.15C225.15 115.659 223.941 114.45 222.45 114.45C220.959 114.45 219.75 115.659 219.75 117.15C219.75 118.641 220.959 119.85 222.45 119.85Z" fill="#FF0000"/>
<path d="M222.45 144.15C223.941 144.15 225.15 142.941 225.15 141.45C225.15 139.959 223.941 138.75 222.45 138.75C220.959 138.75 219.75 139.959 219.75 141.45C219.75 142.941 220.959 144.15 222.45 144.15Z" fill="#FF0000"/>
<path d="M222.45 176.55C223.941 176.55 225.15 175.341 225.15 173.85C225.15 172.359 223.941 171.15 222.45 171.15C220.959 171.15 219.75 172.359 219.75 173.85C219.75 175.341 220.959 176.55 222.45 176.55Z" fill="#FF0000"/>
<path d="M222.45 217.05C223.941 217.05 225.15 215.841 225.15 214.35C225.15 212.859 223.941 211.65 222.45 211.65C220.959 211.65 219.75 212.859 219.75 214.35C219.75 215.841 220.959 217.05 222.45 217.05Z" fill="#FF0000"/>
<path d="M222.45 249.45C223.941 249.45 225.15 248.241 225.15 246.75C225.15 245.259 223.941 244.05 222.45 244.05C220.959 244.05 219.75 245.259 219.75 246.75C219.75 248.241 220.959 249.45 222.45 249.45Z" fill="#FF0000"/>
<path d="M222.45 257.55C223.941 257.55 225.15 256.341 225.15 254.85C225.15 253.359 223.941 252.15 222.45 252.15C220.959 252.15 219.75 253.359 219.75 254.85C219.75 256.341 220.959 257.55 222.45 257.55Z" fill="#FF0000"/>
<path d="M222.45 265.65C223.941 265.65 225.15 264.441 225.15 262.95C225.15 261.459 223.941 260.25 222.45 260.25C220.959 260.25 219.75 261.459 219.75 262.95C219.75 264.441 220.959 265.65 222.45 265.65Z" fill="#FF0000"/>
<path d="M222.45 281.85C223.941 281.85 225.15 280.641 225.15 279.15C225.15 277.659 223.941 276.45 222.45 276.45C220.959 276.45 219.75 277.659 219.75 279.15C219.75 280.641 220.959 281.85 222.45 281.85Z" fill="#FF0000"/>
<path d="M230.55 95.55C232.041 95.55 233.25 94.3412 233.25 92.85C233.25 91.3589 232.041 90.15 230.55 90.15C229.058 90.15 227.85 91.3589 227.85 92.85C227.85 94.3412 229.058 95.55 230.55 95.55Z" fill="#FF0000"/>
<path d="M230.55 111.75C232.041 111.75 233.25 110.541 233.25 109.05C233.25 107.559 232.041 106.35 230.55 106.35C229.058 106.35 227.85 107.559 227.85 109.05C227.85 110.541 229.058 111.75 230.55 111.75Z" fill="#FF0000"/>
<path d="M230.55 119.85C232.041 119.85 233.25 118.641 233.25 117.15C233.25 115.659 232.041 114.45 230.55 114.45C229.058 114.45 227.85 115.659 227.85 117.15C227.85 118.641 229.058 119.85 230.55 119.85Z" fill="#FF0000"/>
<path d="M230.55 127.95C232.041 127.95 233.25 126.741 233.25 125.25C233.25 123.759 232.041 122.55 230.55 122.55C229.058 122.55 227.85 123.759 227.85 125.25C227.85 126.741 229.058 127.95 230.55 127.95Z" fill="#FF0000"/>
<path d="M230.55 184.65C232.041 184.65 233.25 183.441 233.25 181.95C233.25 180.459 232.041 179.25 230.55 179.25C229.058 179.25 227.85 180.459 227.85 181.95C227.85 183.441 229.058 184.65 230.55 184.65Z" fill="#FF0000"/>
<path d="M230.55 192.75C232.041 192.75 233.25 191.541 233.25 190.05C233.25 188.559 232.041 187.35 230.55 187.35C229.058 187.35 227.85 188.559 227.85 190.05C227.85 191.541 229.058 192.75 230.55 192.75Z" fill="#FF0000"/>
<path d="M230.55 208.95C232.041 208.95 233.25 207.741 233.25 206.25C233.25 204.759 232.041 203.55 230.55 203.55C229.058 203.55 227.85 204.759 227.85 206.25C227.85 207.741 229.058 208.95 230.55 208.95Z" fill="#FF0000"/>
<path d="M230.55 217.05C232.041 217.05 233.25 215.841 233.25 214.35C233.25 212.859 232.041 211.65 230.55 211.65C229.058 211.65 227.85 212.859 227.85 214.35C227.85 215.841 229.058 217.05 230.55 217.05Z" fill="#FF0000"/>
<path d="M230.55 233.25C232.041 233.25 233.25 232.041 233.25 230.55C233.25 229.059 232.041 227.85 230.55 227.85C229.058 227.85 227.85 229.059 227.85 230.55C227.85 232.041 229.058 233.25 230.55 233.25Z" fill="#FF0000"/>
<path d="M230.55 249.45C232.041 249.45 233.25 248.241 233.25 246.75C233.25 245.259 232.041 244.05 230.55 244.05C229.058 244.05 227.85 245.259 227.85 246.75C227.85 248.241 229.058 249.45 230.55 249.45Z" fill="#FF0000"/>
<path d="M230.55 265.65C232.041 265.65 233.25 264.441 233.25 262.95C233.25 261.459 232.041 260.25 230.55 260.25C229.058 260.25 227.85 261.459 227.85 262.95C227.85 264.441 229.058 265.65 230.55 265.65Z" fill="#FF0000"/>
<path d="M230.55 273.75C232.041 273.75 233.25 272.541 233.25 271.05C233.25 269.559 232.041 268.35 230.55 268.35C229.058 268.35 227.85 269.559 227.85 271.05C227.85 272.541 229.058 273.75 230.55 273.75Z" fill="#FF0000"/>
<path d="M238.649 87.45C240.14 87.45 241.349 86.2412 241.349 84.75C241.349 83.2588 240.14 82.05 238.649 82.05C237.158 82.05 235.949 83.2588 235.949 84.75C235.949 86.2412 237.158 87.45 238.649 87.45Z" fill="#FF0000"/>
<path d="M238.649 144.15C240.14 144.15 241.349 142.941 241.349 141.45C241.349 139.959 240.14 138.75 238.649 138.75C237.158 138.75 235.949 139.959 235.949 141.45C235.949 142.941 237.158 144.15 238.649 144.15Z" fill="#FF0000"/>
<path d="M238.649 184.65C240.14 184.65 241.349 183.441 241.349 181.95C241.349 180.459 240.14 179.25 238.649 179.25C237.158 179.25 235.949 180.459 235.949 181.95C235.949 183.441 237.158 184.65 238.649 184.65Z" fill="#FF0000"/>
<path d="M238.649 208.95C240.14 208.95 241.349 207.741 241.349 206.25C241.349 204.759 240.14 203.55 238.649 203.55C237.158 203.55 235.949 204.759 235.949 206.25C235.949 207.741 237.158 208.95 238.649 208.95Z" fill="#FF0000"/>
<path d="M238.649 217.05C240.14 217.05 241.349 215.841 241.349 214.35C241.349 212.859 240.14 211.65 238.649 211.65C237.158 211.65 235.949 212.859 235.949 214.35C235.949 215.841 237.158 217.05 238.649 217.05Z" fill="#FF0000"/>
<path d="M238.649 249.45C240.14 249.45 241.349 248.241 241.349 246.75C241.349 245.259 240.14 244.05 238.649 244.05C237.158 244.05 235.949 245.259 235.949 246.75C235.949 248.241 237.158 249.45 238.649 249.45Z" fill="#FF0000"/>
<path d="M238.649 265.65C240.14 265.65 241.349 264.441 241.349 262.95C241.349 261.459 240.14 260.25 238.649 260.25C237.158 260.25 235.949 261.459 235.949 262.95C235.949 264.441 237.158 265.65 238.649 265.65Z" fill="#FF0000"/>
<path d="M238.649 273.75C240.14 273.75 241.349 272.541 241.349 271.05C241.349 269.559 240.14 268.35 238.649 268.35C237.158 268.35 235.949 269.559 235.949 271.05C235.949 272.541 237.158 273.75 238.649 273.75Z" fill="#FF0000"/>
<path d="M246.751 103.65C248.242 103.65 249.451 102.441 249.451 100.95C249.451 99.4588 248.242 98.25 246.751 98.25C245.26 98.25 244.051 99.4588 244.051 100.95C244.051 102.441 245.26 103.65 246.751 103.65Z" fill="#FF0000"/>
<path d="M246.751 111.75C248.242 111.75 249.451 110.541 249.451 109.05C249.451 107.559 248.242 106.35 246.751 106.35C245.26 106.35 244.051 107.559 244.051 109.05C244.051 110.541 245.26 111.75 246.751 111.75Z" fill="#FF0000"/>
<path d="M246.751 127.95C248.242 127.95 249.451 126.741 249.451 125.25C249.451 123.759 248.242 122.55 246.751 122.55C245.26 122.55 244.051 123.759 244.051 125.25C244.051 126.741 245.26 127.95 246.751 127.95Z" fill="#FF0000"/>
<path d="M246.751 136.05C248.242 136.05 249.451 134.841 249.451 133.35C249.451 131.859 248.242 130.65 246.751 130.65C245.26 130.65 244.051 131.859 244.051 133.35C244.051 134.841 245.26 136.05 246.751 136.05Z" fill="#FF0000"/>
<path d="M246.751 168.45C248.242 168.45 249.451 167.241 249.451 165.75C249.451 164.259 248.242 163.05 246.751 163.05C245.26 163.05 244.051 164.259 244.051 165.75C244.051 167.241 245.26 168.45 246.751 168.45Z" fill="#FF0000"/>
<path d="M246.751 176.55C248.242 176.55 249.451 175.341 249.451 173.85C249.451 172.359 248.242 171.15 246.751 171.15C245.26 171.15 244.051 172.359 244.051 173.85C244.051 175.341 245.26 176.55 246.751 176.55Z" fill="#FF0000"/>
<path d="M246.751 192.75C248.242 192.75 249.451 191.541 249.451 190.05C249.451 188.559 248.242 187.35 246.751 187.35C245.26 187.35 244.051 188.559 244.051 190.05C244.051 191.541 245.26 192.75 246.751 192.75Z" fill="#FF0000"/>
<path d="M246.751 217.05C248.242 217.05 249.451 215.841 249.451 214.35C249.451 212.859 248.242 211.65 246.751 211.65C245.26 211.65 244.051 212.859 244.051 214.35C244.051 215.841 245.26 217.05 246.751 217.05Z" fill="#FF0000"/>
<path d="M246.751 225.15C248.242 225.15 249.451 223.941 249.451 222.45C249.451 220.959 248.242 219.75 246.751 219.75C245.26 219.75 244.051 220.959 244.051 222.45C244.051 223.941 245.26 225.15 246.751 225.15Z" fill="#FF0000"/>
<path d="M246.751 233.25C248.242 233.25 249.451 232.041 249.451 230.55C249.451 229.059 248.242 227.85 246.751 227.85C245.26 227.85 244.051 229.059 244.051 230.55C244.051 232.041 245.26 233.25 246.751 233.25Z" fill="#FF0000"/>
<path d="M246.751 241.35C248.242 241.35 249.451 240.141 249.451 238.65C249.451 237.159 248.242 235.95 246.751 235.95C245.26 235.95 244.051 237.159 244.051 238.65C244.051 240.141 245.26 241.35 246.751 241.35Z" fill="#FF0000"/>
<path d="M246.751 249.45C248.242 249.45 249.451 248.241 249.451 246.75C249.451 245.259 248.242 244.05 246.751 244.05C245.26 244.05 244.051 245.259 244.051 246.75C244.051 248.241 245.26 249.45 246.751 249.45Z" fill="#FF0000"/>
<path d="M246.751 257.55C248.242 257.55 249.451 256.341 249.451 254.85C249.451 253.359 248.242 252.15 246.751 252.15C245.26 252.15 244.051 253.359 244.051 254.85C244.051 256.341 245.26 257.55 246.751 257.55Z" fill="#FF0000"/>
<path d="M246.751 273.75C248.242 273.75 249.451 272.541 249.451 271.05C249.451 269.559 248.242 268.35 246.751 268.35C245.26 268.35 244.051 269.559 244.051 271.05C244.051 272.541 245.26 273.75 246.751 273.75Z" fill="#FF0000"/>
<path d="M246.751 281.85C248.242 281.85 249.451 280.641 249.451 279.15C249.451 277.659 248.242 276.45 246.751 276.45C245.26 276.45 244.051 277.659 244.051 279.15C244.051 280.641 245.26 281.85 246.751 281.85Z" fill="#FF0000"/>
<path d="M254.85 111.75C256.342 111.75 257.55 110.541 257.55 109.05C257.55 107.559 256.342 106.35 254.85 106.35C253.359 106.35 252.15 107.559 252.15 109.05C252.15 110.541 253.359 111.75 254.85 111.75Z" fill="#FF0000"/>
<path d="M254.85 136.05C256.342 136.05 257.55 134.841 257.55 133.35C257.55 131.859 256.342 130.65 254.85 130.65C253.359 130.65 252.15 131.859 252.15 133.35C252.15 134.841 253.359 136.05 254.85 136.05Z" fill="#FF0000"/>
<path d="M254.85 152.25C256.342 152.25 257.55 151.041 257.55 149.55C257.55 148.059 256.342 146.85 254.85 146.85C253.359 146.85 252.15 148.059 252.15 149.55C252.15 151.041 253.359 152.25 254.85 152.25Z" fill="#FF0000"/>
<path d="M254.85 160.35C256.342 160.35 257.55 159.141 257.55 157.65C257.55 156.159 256.342 154.95 254.85 154.95C253.359 154.95 252.15 156.159 252.15 157.65C252.15 159.141 253.359 160.35 254.85 160.35Z" fill="#FF0000"/>
<path d="M254.85 176.55C256.342 176.55 257.55 175.341 257.55 173.85C257.55 172.359 256.342 171.15 254.85 171.15C253.359 171.15 252.15 172.359 252.15 173.85C252.15 175.341 253.359 176.55 254.85 176.55Z" fill="#FF0000"/>
<path d="M254.85 192.75C256.342 192.75 257.55 191.541 257.55 190.05C257.55 188.559 256.342 187.35 254.85 187.35C253.359 187.35 252.15 188.559 252.15 190.05C252.15 191.541 253.359 192.75 254.85 192.75Z" fill="#FF0000"/>
<path d="M254.85 200.85C256.342 200.85 257.55 199.641 257.55 198.15C257.55 196.659 256.342 195.45 254.85 195.45C253.359 195.45 252.15 196.659 252.15 198.15C252.15 199.641 253.359 200.85 254.85 200.85Z" fill="#FF0000"/>
<path d="M254.85 217.05C256.342 217.05 257.55 215.841 257.55 214.35C257.55 212.859 256.342 211.65 254.85 211.65C253.359 211.65 252.15 212.859 252.15 214.35C252.15 215.841 253.359 217.05 254.85 217.05Z" fill="#FF0000"/>
<path d="M254.85 225.15C256.342 225.15 257.55 223.941 257.55 222.45C257.55 220.959 256.342 219.75 254.85 219.75C253.359 219.75 252.15 220.959 252.15 222.45C252.15 223.941 253.359 225.15 254.85 225.15Z" fill="#FF0000"/>
<path d="M254.85 241.35C256.342 241.35 257.55 240.141 257.55 238.65C257.55 237.159 256.342 235.95 254.85 235.95C253.359 235.95 252.15 237.159 252.15 238.65C252.15 240.141 253.359 241.35 254.85 241.35Z" fill="#FF0000"/>
<path d="M254.85 249.45C256.342 249.45 257.55 248.241 257.55 246.75C257.55 245.259 256.342 244.05 254.85 244.05C253.359 244.05 252.15 245.259 252.15 246.75C252.15 248.241 253.359 249.45 254.85 249.45Z" fill="#FF0000"/>
<path d="M254.85 265.65C256.342 265.65 257.55 264.441 257.55 262.95C257.55 261.459 256.342 260.25 254.85 260.25C253.359 260.25 252.15 261.459 252.15 262.95C252.15 264.441 253.359 265.65 254.85 265.65Z" fill="#FF0000"/>
<path d="M254.85 273.75C256.342 273.75 257.55 272.541 257.55 271.05C257.55 269.559 256.342 268.35 254.85 268.35C253.359 268.35 252.15 269.559 252.15 271.05C252.15 272.541 253.359 273.75 254.85 273.75Z" fill="#FF0000"/>
<path d="M262.95 103.65C264.441 103.65 265.65 102.441 265.65 100.95C265.65 99.4588 264.441 98.25 262.95 98.25C261.459 98.25 260.25 99.4588 260.25 100.95C260.25 102.441 261.459 103.65 262.95 103.65Z" fill="#FF0000"/>
<path d="M262.95 111.75C264.441 111.75 265.65 110.541 265.65 109.05C265.65 107.559 264.441 106.35 262.95 106.35C261.459 106.35 260.25 107.559 260.25 109.05C260.25 110.541 261.459 111.75 262.95 111.75Z" fill="#FF0000"/>
<path d="M262.95 119.85C264.441 119.85 265.65 118.641 265.65 117.15C265.65 115.659 264.441 114.45 262.95 114.45C261.459 114.45 260.25 115.659 260.25 117.15C260.25 118.641 261.459 119.85 262.95 119.85Z" fill="#FF0000"/>
<path d="M262.95 127.95C264.441 127.95 265.65 126.741 265.65 125.25C265.65 123.759 264.441 122.55 262.95 122.55C261.459 122.55 260.25 123.759 260.25 125.25C260.25 126.741 261.459 127.95 262.95 127.95Z" fill="#FF0000"/>
<path d="M262.95 136.05C264.441 136.05 265.65 134.841 265.65 133.35C265.65 131.859 264.441 130.65 262.95 130.65C261.459 130.65 260.25 131.859 260.25 133.35C260.25 134.841 261.459 136.05 262.95 136.05Z" fill="#FF0000"/>
<path d="M262.95 152.25C264.441 152.25 265.65 151.041 265.65 149.55C265.65 148.059 264.441 146.85 262.95 146.85C261.459 146.85 260.25 148.059 260.25 149.55C260.25 151.041 261.459 152.25 262.95 152.25Z" fill="#FF0000"/>
<path d="M262.95 160.35C264.441 160.35 265.65 159.141 265.65 157.65C265.65 156.159 264.441 154.95 262.95 154.95C261.459 154.95 260.25 156.159 260.25 157.65C260.25 159.141 261.459 160.35 262.95 160.35Z" fill="#FF0000"/>
<path d="M262.95 168.45C264.441 168.45 265.65 167.241 265.65 165.75C265.65 164.259 264.441 163.05 262.95 163.05C261.459 163.05 260.25 164.259 260.25 165.75C260.25 167.241 261.459 168.45 262.95 168.45Z" fill="#FF0000"/>
<path d="M262.95 249.45C264.441 249.45 265.65 248.241 265.65 246.75C265.65 245.259 264.441 244.05 262.95 244.05C261.459 244.05 260.25 245.259 260.25 246.75C260.25 248.241 261.459 249.45 262.95 249.45Z" fill="#FF0000"/>
<path d="M262.95 265.65C264.441 265.65 265.65 264.441 265.65 262.95C265.65 261.459 264.441 260.25 262.95 260.25C261.459 260.25 260.25 261.459 260.25 262.95C260.25 264.441 261.459 265.65 262.95 265.65Z" fill="#FF0000"/>
<path d="M262.95 273.75C264.441 273.75 265.65 272.541 265.65 271.05C265.65 269.559 264.441 268.35 262.95 268.35C261.459 268.35 260.25 269.559 260.25 271.05C260.25 272.541 261.459 273.75 262.95 273.75Z" fill="#FF0000"/>
<path d="M262.95 281.85C264.441 281.85 265.65 280.641 265.65 279.15C265.65 277.659 264.441 276.45 262.95 276.45C261.459 276.45 260.25 277.659 260.25 279.15C260.25 280.641 261.459 281.85 262.95 281.85Z" fill="#FF0000"/>
<path d="M271.05 103.65C272.541 103.65 273.75 102.441 273.75 100.95C273.75 99.4588 272.541 98.25 271.05 98.25C269.558 98.25 268.35 99.4588 268.35 100.95C268.35 102.441 269.558 103.65 271.05 103.65Z" fill="#FF0000"/>
<path d="M271.05 127.95C272.541 127.95 273.75 126.741 273.75 125.25C273.75 123.759 272.541 122.55 271.05 122.55C269.558 122.55 268.35 123.759 268.35 125.25C268.35 126.741 269.558 127.95 271.05 127.95Z" fill="#FF0000"/>
<path d="M271.05 136.05C272.541 136.05 273.75 134.841 273.75 133.35C273.75 131.859 272.541 130.65 271.05 130.65C269.558 130.65 268.35 131.859 268.35 133.35C268.35 134.841 269.558 136.05 271.05 136.05Z" fill="#FF0000"/>
<path d="M271.05 144.15C272.541 144.15 273.75 142.941 273.75 141.45C273.75 139.959 272.541 138.75 271.05 138.75C269.558 138.75 268.35 139.959 268.35 141.45C268.35 142.941 269.558 144.15 271.05 144.15Z" fill="#FF0000"/>
<path d="M271.05 152.25C272.541 152.25 273.75 151.041 273.75 149.55C273.75 148.059 272.541 146.85 271.05 146.85C269.558 146.85 268.35 148.059 268.35 149.55C268.35 151.041 269.558 152.25 271.05 152.25Z" fill="#FF0000"/>
<path d="M271.05 160.35C272.541 160.35 273.75 159.141 273.75 157.65C273.75 156.159 272.541 154.95 271.05 154.95C269.558 154.95 268.35 156.159 268.35 157.65C268.35 159.141 269.558 160.35 271.05 160.35Z" fill="#FF0000"/>
<path d="M271.05 176.55C272.541 176.55 273.75 175.341 273.75 173.85C273.75 172.359 272.541 171.15 271.05 171.15C269.558 171.15 268.35 172.359 268.35 173.85C268.35 175.341 269.558 176.55 271.05 176.55Z" fill="#FF0000"/>
<path d="M271.05 192.75C272.541 192.75 273.75 191.541 273.75 190.05C273.75 188.559 272.541 187.35 271.05 187.35C269.558 187.35 268.35 188.559 268.35 190.05C268.35 191.541 269.558 192.75 271.05 192.75Z" fill="#FF0000"/>
<path d="M271.05 265.65C272.541 265.65 273.75 264.441 273.75 262.95C273.75 261.459 272.541 260.25 271.05 260.25C269.558 260.25 268.35 261.459 268.35 262.95C268.35 264.441 269.558 265.65 271.05 265.65Z" fill="#FF0000"/>
<path d="M279.149 95.55C280.64 95.55 281.849 94.3412 281.849 92.85C281.849 91.3589 280.64 90.15 279.149 90.15C277.658 90.15 276.449 91.3589 276.449 92.85C276.449 94.3412 277.658 95.55 279.149 95.55Z" fill="#FF0000"/>
<path d="M279.149 103.65C280.64 103.65 281.849 102.441 281.849 100.95C281.849 99.4588 280.64 98.25 279.149 98.25C277.658 98.25 276.449 99.4588 276.449 100.95C276.449 102.441 277.658 103.65 279.149 103.65Z" fill="#FF0000"/>
<path d="M279.149 119.85C280.64 119.85 281.849 118.641 281.849 117.15C281.849 115.659 280.64 114.45 279.149 114.45C277.658 114.45 276.449 115.659 276.449 117.15C276.449 118.641 277.658 119.85 279.149 119.85Z" fill="#FF0000"/>
<path d="M279.149 127.95C280.64 127.95 281.849 126.741 281.849 125.25C281.849 123.759 280.64 122.55 279.149 122.55C277.658 122.55 276.449 123.759 276.449 125.25C276.449 126.741 277.658 127.95 279.149 127.95Z" fill="#FF0000"/>
<path d="M279.149 192.75C280.64 192.75 281.849 191.541 281.849 190.05C281.849 188.559 280.64 187.35 279.149 187.35C277.658 187.35 276.449 188.559 276.449 190.05C276.449 191.541 277.658 192.75 279.149 192.75Z" fill="#FF0000"/>
<path d="M279.149 200.85C280.64 200.85 281.849 199.641 281.849 198.15C281.849 196.659 280.64 195.45 279.149 195.45C277.658 195.45 276.449 196.659 276.449 198.15C276.449 199.641 277.658 200.85 279.149 200.85Z" fill="#FF0000"/>
<path d="M279.149 217.05C280.64 217.05 281.849 215.841 281.849 214.35C281.849 212.859 280.64 211.65 279.149 211.65C277.658 211.65 276.449 212.859 276.449 214.35C276.449 215.841 277.658 217.05 279.149 217.05Z" fill="#FF0000"/>
<path d="M279.149 233.25C280.64 233.25 281.849 232.041 281.849 230.55C281.849 229.059 280.64 227.85 279.149 227.85C277.658 227.85 276.449 229.059 276.449 230.55C276.449 232.041 277.658 233.25 279.149 233.25Z" fill="#FF0000"/>
<path d="M279.149 257.55C280.64 257.55 281.849 256.341 281.849 254.85C281.849 253.359 280.64 252.15 279.149 252.15C277.658 252.15 276.449 253.359 276.449 254.85C276.449 256.341 277.658 257.55 279.149 257.55Z" fill="#FF0000"/>
<path d="M279.149 265.65C280.64 265.65 281.849 264.441 281.849 262.95C281.849 261.459 280.64 260.25 279.149 260.25C277.658 260.25 276.449 261.459 276.449 262.95C276.449 264.441 277.658 265.65 279.149 265.65Z" fill="#FF0000"/>
<path d="M279.149 273.75C280.64 273.75 281.849 272.541 281.849 271.05C281.849 269.559 280.64 268.35 279.149 268.35C277.658 268.35 276.449 269.559 276.449 271.05C276.449 272.541 277.658 273.75 279.149 273.75Z" fill="#FF0000"/>
<path d="M15.9004 36.15V52.35C15.9004 57.7207 18.0339 62.8713 21.8315 66.6689C25.6291 70.4665 30.7798 72.6 36.1504 72.6H52.3504C57.721 72.6 62.8717 70.4665 66.6693 66.6689C70.4669 62.8713 72.6004 57.7207 72.6004 52.35V36.15C72.6004 30.7794 70.4669 25.6287 66.6693 21.8311C62.8717 18.0335 57.721 15.9 52.3504 15.9H36.1504C30.7798 15.9 25.6291 18.0335 21.8315 21.8311C18.0339 25.6287 15.9004 30.7794 15.9004 36.15ZM36.1504 24H52.3504C55.5728 24 58.6632 25.2801 60.9417 27.5587C63.2203 29.8372 64.5004 32.9276 64.5004 36.15V52.35C64.5004 55.5724 63.2203 58.6628 60.9417 60.9414C58.6632 63.2199 55.5728 64.5 52.3504 64.5H36.1504C32.928 64.5 29.8376 63.2199 27.559 60.9414C25.2805 58.6628 24.0004 55.5724 24.0004 52.35V36.15C24.0004 32.9276 25.2805 29.8372 27.559 27.5587C29.8376 25.2801 32.928 24 36.1504 24Z" fill="#FF0000"/>
<path d="M44.2496 56.4C50.9599 56.4 56.3996 50.9602 56.3996 44.25C56.3996 37.5397 50.9599 32.1 44.2496 32.1C37.5393 32.1 32.0996 37.5397 32.0996 44.25C32.0996 50.9602 37.5393 56.4 44.2496 56.4Z" fill="#FF0000"/>
<path d="M262.949 15.9H246.749C241.379 15.9 236.228 18.0335 232.43 21.8311C228.633 25.6287 226.499 30.7794 226.499 36.15V52.35C226.499 57.7207 228.633 62.8713 232.43 66.6689C236.228 70.4666 241.379 72.6 246.749 72.6H262.949C268.32 72.6 273.471 70.4666 277.268 66.6689C281.066 62.8713 283.199 57.7207 283.199 52.35V36.15C283.199 30.7794 281.066 25.6287 277.268 21.8311C273.471 18.0335 268.32 15.9 262.949 15.9ZM275.099 36.15V52.35C275.099 55.5724 273.819 58.6628 271.541 60.9414C269.262 63.2199 266.172 64.5 262.949 64.5H246.749C243.527 64.5 240.436 63.2199 238.158 60.9414C235.879 58.6628 234.599 55.5724 234.599 52.35V36.15C234.599 32.9276 235.879 29.8372 238.158 27.5587C240.436 25.2801 243.527 24 246.749 24H262.949C266.172 24 269.262 25.2801 271.541 27.5587C273.819 29.8372 275.099 32.9276 275.099 36.15Z" fill="#FF0000"/>
<path d="M242.7 44.25C242.7 50.9602 248.14 56.4 254.85 56.4C261.56 56.4 267 50.9602 267 44.25C267 37.5397 261.56 32.1 254.85 32.1C248.14 32.1 242.7 37.5397 242.7 44.25Z" fill="#FF0000"/>
<path d="M36.1504 283.2H52.3504C57.721 283.2 62.8717 281.067 66.6693 277.269C70.4669 273.471 72.6004 268.321 72.6004 262.95V246.75C72.6004 241.379 70.4669 236.229 66.6693 232.431C62.8717 228.633 57.721 226.5 52.3504 226.5H36.1504C30.7798 226.5 25.6291 228.633 21.8315 232.431C18.0339 236.229 15.9004 241.379 15.9004 246.75V262.95C15.9004 268.321 18.0339 273.471 21.8315 277.269C25.6291 281.067 30.7798 283.2 36.1504 283.2ZM24.0004 262.95V246.75C24.0004 243.528 25.2805 240.437 27.559 238.159C29.8376 235.88 32.928 234.6 36.1504 234.6H52.3504C55.5728 234.6 58.6632 235.88 60.9417 238.159C63.2203 240.437 64.5004 243.528 64.5004 246.75V262.95C64.5004 266.172 63.2203 269.263 60.9417 271.541C58.6632 273.82 55.5728 275.1 52.3504 275.1H36.1504C32.928 275.1 29.8376 273.82 27.559 271.541C25.2805 269.263 24.0004 266.172 24.0004 262.95Z" fill="#FF0000"/>
<path d="M56.3996 254.85C56.3996 248.14 50.9599 242.7 44.2496 242.7C37.5393 242.7 32.0996 248.14 32.0996 254.85C32.0996 261.56 37.5393 267 44.2496 267C50.9599 267 56.3996 261.56 56.3996 254.85Z" fill="#FF0000"/>
<g clip-path="url(#clip0_184_848)">
<path d="M187.387 123H111.65V176.1H187.387V123Z" fill="white"/>
<mask id="mask0_184_848" style="mask-type:luminance" maskUnits="userSpaceOnUse" x="119" y="128" width="61" height="43">
<path d="M179.353 128.576H119.615V170.457H179.353V128.576Z" fill="white"/>
</mask>
<g mask="url(#mask0_184_848)">
<path d="M178.104 135.116C177.416 132.54 175.394 130.516 172.822 129.826C168.166 128.576 149.484 128.576 149.484 128.576C149.484 128.576 130.802 128.576 126.146 129.826C123.574 130.516 121.553 132.54 120.864 135.116C119.615 139.78 119.615 149.516 119.615 149.516C119.615 149.516 119.615 159.253 120.864 163.917C121.553 166.493 123.574 168.517 126.146 169.206C130.802 170.457 149.484 170.457 149.484 170.457C149.484 170.457 168.166 170.457 172.822 169.206C175.394 168.517 177.416 166.493 178.104 163.917C179.353 159.253 179.353 149.516 179.353 149.516C179.353 149.516 179.348 139.78 178.104 135.116Z" fill="#FF0000"/>
<path d="M143.504 158.491L159.024 149.517L143.504 140.544V158.491Z" fill="white"/>
</g>
</g>
<defs>
<clipPath id="clip0_184_848">
<rect width="77.4" height="53.1" fill="white" transform="translate(110.85 123)"/>
</clipPath>
</defs>
</svg>
