<svg width="750" height="750" viewBox="0 0 750 750" fill="none" xmlns="http://www.w3.org/2000/svg">
<g filter="url(#filter0_ii_49_19)">
<path d="M587.725 97.3472C651.907 232.509 672.494 408.45 573.985 521.072C523.905 578.327 453.271 614 375 614C284.244 614 203.757 566.04 153.672 492.085C83.316 388.197 109.194 250.874 142.41 129.881C180.479 -8.79008 160.984 238.352 353.502 37.3434C365.102 25.2318 384.901 25.2306 396.474 37.3683C567.334 216.571 560.246 39.4785 587.725 97.3472Z" fill="url(#paint0_linear_49_19)"/>
</g>
<g filter="url(#filter1_dii_49_19)">
<circle cx="375" cy="326" r="100" fill="#D9D9D9"/>
<mask id="path-3-outside-1_49_19" maskUnits="userSpaceOnUse" x="329" y="255" width="92" height="131" fill="black">
<rect fill="white" x="329" y="255" width="92" height="131"/>
<path d="M391.555 311.45C394.155 311.45 396.855 312 399.655 313.1C402.455 314.2 405.155 315.65 407.755 317.45H407.605C410.205 319.25 412.205 321.7 413.605 324.8C415.005 327.9 415.705 331.45 415.705 335.45V356C415.705 364.1 413.005 370.15 407.605 374.15C405.005 376.05 402.305 377.55 399.505 378.65C396.805 379.65 394.155 380.15 391.555 380.15H358.855C356.255 380.15 353.555 379.65 350.755 378.65C348.055 377.55 345.405 376.05 342.805 374.15C337.405 370.15 334.705 364.1 334.705 356V346.1C334.705 341.4 337.655 339.05 343.555 339.05C349.555 339.05 352.555 341.4 352.555 346.1V354.8C352.555 357.4 353.305 359.75 354.805 361.85C356.305 363.95 358.905 365 362.605 365H387.805C391.505 365 394.105 363.95 395.605 361.85C397.105 359.75 397.855 357.4 397.855 354.8V336.65C397.855 334.15 397.105 331.85 395.605 329.75C394.105 327.55 391.505 326.45 387.805 326.45H358.855C353.655 326.45 348.305 324.55 342.805 320.75C337.405 316.55 334.705 310.5 334.705 302.6V284.75C334.705 280.75 335.405 277.25 336.805 274.25C338.205 271.15 340.205 268.65 342.805 266.75H342.655C345.255 265.05 347.955 263.65 350.755 262.55C353.555 261.45 356.255 260.9 358.855 260.9H391.555C394.155 260.9 396.855 261.45 399.655 262.55C402.455 263.65 405.155 265.05 407.755 266.75H407.605C410.205 268.65 412.205 271.15 413.605 274.25C415.005 277.25 415.705 280.75 415.705 284.75V293.6C415.705 298.3 412.705 300.65 406.705 300.65C400.805 300.65 397.855 298.3 397.855 293.6V286.1C397.855 283.6 397.105 281.3 395.605 279.2C394.105 277.1 391.505 276.05 387.805 276.05H362.605C358.905 276.05 356.305 277.1 354.805 279.2C353.305 281.3 352.555 283.6 352.555 286.1V301.4C352.555 304 353.305 306.35 354.805 308.45C356.305 310.45 358.905 311.45 362.605 311.45H391.555Z"/>
</mask>
<path d="M391.555 311.45C394.155 311.45 396.855 312 399.655 313.1C402.455 314.2 405.155 315.65 407.755 317.45H407.605C410.205 319.25 412.205 321.7 413.605 324.8C415.005 327.9 415.705 331.45 415.705 335.45V356C415.705 364.1 413.005 370.15 407.605 374.15C405.005 376.05 402.305 377.55 399.505 378.65C396.805 379.65 394.155 380.15 391.555 380.15H358.855C356.255 380.15 353.555 379.65 350.755 378.65C348.055 377.55 345.405 376.05 342.805 374.15C337.405 370.15 334.705 364.1 334.705 356V346.1C334.705 341.4 337.655 339.05 343.555 339.05C349.555 339.05 352.555 341.4 352.555 346.1V354.8C352.555 357.4 353.305 359.75 354.805 361.85C356.305 363.95 358.905 365 362.605 365H387.805C391.505 365 394.105 363.95 395.605 361.85C397.105 359.75 397.855 357.4 397.855 354.8V336.65C397.855 334.15 397.105 331.85 395.605 329.75C394.105 327.55 391.505 326.45 387.805 326.45H358.855C353.655 326.45 348.305 324.55 342.805 320.75C337.405 316.55 334.705 310.5 334.705 302.6V284.75C334.705 280.75 335.405 277.25 336.805 274.25C338.205 271.15 340.205 268.65 342.805 266.75H342.655C345.255 265.05 347.955 263.65 350.755 262.55C353.555 261.45 356.255 260.9 358.855 260.9H391.555C394.155 260.9 396.855 261.45 399.655 262.55C402.455 263.65 405.155 265.05 407.755 266.75H407.605C410.205 268.65 412.205 271.15 413.605 274.25C415.005 277.25 415.705 280.75 415.705 284.75V293.6C415.705 298.3 412.705 300.65 406.705 300.65C400.805 300.65 397.855 298.3 397.855 293.6V286.1C397.855 283.6 397.105 281.3 395.605 279.2C394.105 277.1 391.505 276.05 387.805 276.05H362.605C358.905 276.05 356.305 277.1 354.805 279.2C353.305 281.3 352.555 283.6 352.555 286.1V301.4C352.555 304 353.305 306.35 354.805 308.45C356.305 310.45 358.905 311.45 362.605 311.45H391.555Z" fill="#8563D0"/>
<path d="M399.655 313.1L397.827 317.754L397.827 317.754L399.655 313.1ZM407.755 317.45V322.45C409.942 322.45 411.876 321.028 412.528 318.941C413.18 316.853 412.399 314.584 410.601 313.339L407.755 317.45ZM407.605 317.45V312.45C405.418 312.45 403.485 313.872 402.833 315.959C402.18 318.047 402.961 320.316 404.759 321.561L407.605 317.45ZM413.605 324.8L418.162 322.742L418.162 322.742L413.605 324.8ZM407.605 374.15L410.555 378.187C410.564 378.181 410.573 378.174 410.581 378.168L407.605 374.15ZM399.505 378.65L401.242 383.339C401.272 383.327 401.303 383.316 401.333 383.304L399.505 378.65ZM350.755 378.65L348.869 383.28C348.936 383.308 349.005 383.334 349.073 383.359L350.755 378.65ZM342.805 374.15L339.829 378.168C339.838 378.174 339.846 378.181 339.855 378.187L342.805 374.15ZM354.805 361.85L358.874 358.944L358.874 358.944L354.805 361.85ZM395.605 361.85L391.536 358.944L391.536 358.944L395.605 361.85ZM395.605 329.75L391.474 332.567C391.494 332.597 391.515 332.627 391.536 332.656L395.605 329.75ZM342.805 320.75L339.735 324.697C339.81 324.755 339.886 324.81 339.963 324.864L342.805 320.75ZM336.805 274.25L341.336 276.364C341.345 276.346 341.353 276.327 341.362 276.308L336.805 274.25ZM342.805 266.75L345.755 270.787C347.502 269.51 348.23 267.255 347.558 265.198C346.887 263.142 344.969 261.75 342.805 261.75V266.75ZM342.655 266.75L339.919 262.565C338.068 263.775 337.232 266.058 337.863 268.178C338.495 270.297 340.443 271.75 342.655 271.75V266.75ZM350.755 262.55L348.927 257.896L348.927 257.896L350.755 262.55ZM399.655 262.55L401.483 257.896L401.483 257.896L399.655 262.55ZM407.755 266.75V271.75C409.967 271.75 411.916 270.297 412.547 268.178C413.178 266.058 412.342 263.775 410.491 262.565L407.755 266.75ZM407.605 266.75V261.75C405.441 261.75 403.523 263.142 402.852 265.198C402.181 267.255 402.908 269.51 404.655 270.787L407.605 266.75ZM413.605 274.25L409.048 276.308C409.057 276.327 409.065 276.346 409.074 276.364L413.605 274.25ZM395.605 279.2L399.674 276.294L399.674 276.294L395.605 279.2ZM354.805 279.2L350.736 276.294L350.736 276.294L354.805 279.2ZM354.805 308.45L350.736 311.356C350.759 311.388 350.782 311.419 350.805 311.45L354.805 308.45ZM391.555 316.45C393.439 316.45 395.519 316.847 397.827 317.754L401.483 308.446C398.191 307.153 394.871 306.45 391.555 306.45V316.45ZM397.827 317.754C400.25 318.706 402.61 319.969 404.909 321.561L410.601 313.339C407.7 311.331 404.66 309.694 401.483 308.446L397.827 317.754ZM407.755 312.45H407.605V322.45H407.755V312.45ZM404.759 321.561C406.557 322.805 407.992 324.52 409.048 326.858L418.162 322.742C416.418 318.88 413.854 315.695 410.451 313.339L404.759 321.561ZM409.048 326.858C410.109 329.207 410.705 332.036 410.705 335.45H420.705C420.705 330.864 419.901 326.593 418.162 322.742L409.048 326.858ZM410.705 335.45V356H420.705V335.45H410.705ZM410.705 356C410.705 362.882 408.488 367.274 404.629 370.132L410.581 378.168C417.522 373.026 420.705 365.318 420.705 356H410.705ZM404.655 370.113C402.377 371.778 400.051 373.064 397.677 373.996L401.333 383.304C404.559 382.036 407.633 380.322 410.555 378.187L404.655 370.113ZM397.769 373.961C395.565 374.777 393.502 375.15 391.555 375.15V385.15C394.808 385.15 398.045 384.523 401.242 383.339L397.769 373.961ZM391.555 375.15H358.855V385.15H391.555V375.15ZM358.855 375.15C356.904 375.15 354.773 374.776 352.437 373.941L349.073 383.359C352.337 384.524 355.606 385.15 358.855 385.15V375.15ZM352.642 374.02C350.356 373.088 348.06 371.797 345.755 370.113L339.855 378.187C342.75 380.303 345.754 382.012 348.869 383.28L352.642 374.02ZM345.781 370.132C341.922 367.274 339.705 362.882 339.705 356H329.705C329.705 365.318 332.888 373.026 339.829 378.168L345.781 370.132ZM339.705 356V346.1H329.705V356H339.705ZM339.705 346.1C339.705 345.44 339.809 345.092 339.871 344.946C339.919 344.829 339.962 344.78 340.033 344.723C340.246 344.554 341.136 344.05 343.555 344.05V334.05C340.075 334.05 336.54 334.721 333.802 336.902C330.848 339.255 329.705 342.639 329.705 346.1H339.705ZM343.555 344.05C346.039 344.05 346.98 344.56 347.222 344.749C347.303 344.813 347.346 344.865 347.392 344.973C347.451 345.112 347.555 345.449 347.555 346.1H357.555C357.555 342.61 356.379 339.219 353.388 336.876C350.63 334.715 347.071 334.05 343.555 334.05V344.05ZM347.555 346.1V354.8H357.555V346.1H347.555ZM347.555 354.8C347.555 358.434 348.626 361.801 350.736 364.756L358.874 358.944C357.984 357.699 357.555 356.366 357.555 354.8H347.555ZM350.736 364.756C353.538 368.678 358.036 370 362.605 370V360C359.774 360 359.073 359.222 358.874 358.944L350.736 364.756ZM362.605 370H387.805V360H362.605V370ZM387.805 370C392.374 370 396.873 368.678 399.674 364.756L391.536 358.944C391.338 359.222 390.636 360 387.805 360V370ZM399.674 364.756C401.784 361.801 402.855 358.434 402.855 354.8H392.855C392.855 356.366 392.426 357.699 391.536 358.944L399.674 364.756ZM402.855 354.8V336.65H392.855V354.8H402.855ZM402.855 336.65C402.855 333.073 401.759 329.763 399.674 326.844L391.536 332.656C392.452 333.937 392.855 335.227 392.855 336.65H402.855ZM399.736 326.933C396.97 322.876 392.458 321.45 387.805 321.45V331.45C390.552 331.45 391.24 332.224 391.474 332.567L399.736 326.933ZM387.805 321.45H358.855V331.45H387.805V321.45ZM358.855 321.45C354.925 321.45 350.55 320.023 345.647 316.636L339.963 324.864C346.061 329.077 352.385 331.45 358.855 331.45V321.45ZM345.875 316.803C341.891 313.705 339.705 309.227 339.705 302.6H329.705C329.705 311.773 332.919 319.395 339.735 324.697L345.875 316.803ZM339.705 302.6V284.75H329.705V302.6H339.705ZM339.705 284.75C339.705 281.331 340.303 278.579 341.336 276.364L332.274 272.136C330.508 275.921 329.705 280.169 329.705 284.75H339.705ZM341.362 276.308C342.427 273.949 343.892 272.148 345.755 270.787L339.855 262.713C336.518 265.152 333.983 268.351 332.248 272.192L341.362 276.308ZM342.805 261.75H342.655V271.75H342.805V261.75ZM345.391 270.935C347.715 269.416 350.111 268.175 352.583 267.204L348.927 257.896C345.799 259.125 342.795 260.684 339.919 262.565L345.391 270.935ZM352.583 267.204C354.891 266.297 356.971 265.9 358.855 265.9V255.9C355.539 255.9 352.219 256.603 348.927 257.896L352.583 267.204ZM358.855 265.9H391.555V255.9H358.855V265.9ZM391.555 265.9C393.439 265.9 395.519 266.297 397.827 267.204L401.483 257.896C398.191 256.603 394.871 255.9 391.555 255.9V265.9ZM397.827 267.204C400.299 268.175 402.695 269.416 405.019 270.935L410.491 262.565C407.615 260.684 404.611 259.125 401.483 257.896L397.827 267.204ZM407.755 261.75H407.605V271.75H407.755V261.75ZM404.655 270.787C406.518 272.148 407.983 273.949 409.048 276.308L418.162 272.192C416.427 268.351 413.892 265.152 410.555 262.713L404.655 270.787ZM409.074 276.364C410.108 278.579 410.705 281.331 410.705 284.75H420.705C420.705 280.169 419.903 275.921 418.136 272.136L409.074 276.364ZM410.705 284.75V293.6H420.705V284.75H410.705ZM410.705 293.6C410.705 294.251 410.601 294.588 410.542 294.727C410.496 294.835 410.453 294.887 410.372 294.951C410.13 295.14 409.189 295.65 406.705 295.65V305.65C410.221 305.65 413.78 304.985 416.538 302.824C419.529 300.481 420.705 297.09 420.705 293.6H410.705ZM406.705 295.65C404.286 295.65 403.396 295.146 403.183 294.977C403.112 294.92 403.069 294.871 403.021 294.754C402.959 294.608 402.855 294.26 402.855 293.6H392.855C392.855 297.061 393.998 300.445 396.952 302.798C399.69 304.979 403.225 305.65 406.705 305.65V295.65ZM402.855 293.6V286.1H392.855V293.6H402.855ZM402.855 286.1C402.855 282.523 401.759 279.213 399.674 276.294L391.536 282.106C392.452 283.387 392.855 284.677 392.855 286.1H402.855ZM399.674 276.294C396.873 272.372 392.374 271.05 387.805 271.05V281.05C390.636 281.05 391.338 281.828 391.536 282.106L399.674 276.294ZM387.805 271.05H362.605V281.05H387.805V271.05ZM362.605 271.05C358.036 271.05 353.538 272.372 350.736 276.294L358.874 282.106C359.073 281.828 359.774 281.05 362.605 281.05V271.05ZM350.736 276.294C348.652 279.213 347.555 282.523 347.555 286.1H357.555C357.555 284.677 357.959 283.387 358.874 282.106L350.736 276.294ZM347.555 286.1V301.4H357.555V286.1H347.555ZM347.555 301.4C347.555 305.034 348.626 308.401 350.736 311.356L358.874 305.544C357.984 304.299 357.555 302.966 357.555 301.4H347.555ZM350.805 311.45C353.639 315.228 358.119 316.45 362.605 316.45V306.45C359.692 306.45 358.972 305.672 358.805 305.45L350.805 311.45ZM362.605 316.45H391.555V306.45H362.605V316.45Z" fill="black" mask="url(#path-3-outside-1_49_19)"/>
<mask id="path-5-outside-2_49_19" maskUnits="userSpaceOnUse" x="365" y="286" width="20" height="16" fill="black">
<rect fill="white" x="365" y="286" width="20" height="16"/>
<path d="M368.94 299.328C368.94 299.84 368.647 300.096 368.06 300.096C367.463 300.096 367.164 299.84 367.164 299.328V291.072C367.164 290.56 367.463 290.304 368.06 290.304C368.647 290.304 368.94 290.56 368.94 291.072V299.328ZM369.276 288.288C369.276 288.629 369.159 288.917 368.924 289.152C368.69 289.387 368.402 289.504 368.06 289.504C367.719 289.504 367.426 289.387 367.18 289.152C366.946 288.917 366.828 288.629 366.828 288.288C366.828 287.936 366.946 287.643 367.18 287.408C367.426 287.173 367.719 287.056 368.06 287.056C368.402 287.056 368.69 287.173 368.924 287.408C369.159 287.643 369.276 287.936 369.276 288.288ZM376.444 293.04C376.444 292.901 376.422 292.768 376.38 292.64C376.337 292.501 376.284 292.373 376.22 292.256C376.081 292 375.793 291.872 375.356 291.872H374.332C373.894 291.872 373.601 292 373.452 292.256C373.324 292.501 373.26 292.763 373.26 293.04V299.376C373.26 299.877 372.966 300.128 372.38 300.128C371.772 300.128 371.468 299.877 371.468 299.376V292.896C371.468 292.021 371.756 291.381 372.332 290.976C372.918 290.571 373.489 290.368 374.044 290.368H375.66C375.905 290.368 376.177 290.416 376.476 290.512C376.774 290.608 377.062 290.757 377.34 290.96C377.606 290.757 377.884 290.608 378.172 290.512C378.47 290.416 378.753 290.368 379.02 290.368H380.62C381.185 290.368 381.75 290.571 382.316 290.976C382.902 291.371 383.196 292.011 383.196 292.896V299.376C383.196 299.877 382.897 300.128 382.3 300.128C381.702 300.128 381.404 299.877 381.404 299.376V293.04C381.404 292.901 381.388 292.763 381.356 292.624C381.324 292.485 381.265 292.357 381.18 292.24L381.196 292.256C381.11 292.117 381.004 292.021 380.876 291.968C380.748 291.904 380.561 291.872 380.316 291.872H379.308C378.86 291.872 378.566 292 378.428 292.256C378.289 292.491 378.22 292.752 378.22 293.04V299.376C378.22 299.877 377.926 300.128 377.34 300.128C376.742 300.128 376.444 299.877 376.444 299.376V293.04Z"/>
</mask>
<path d="M368.94 299.328C368.94 299.84 368.647 300.096 368.06 300.096C367.463 300.096 367.164 299.84 367.164 299.328V291.072C367.164 290.56 367.463 290.304 368.06 290.304C368.647 290.304 368.94 290.56 368.94 291.072V299.328ZM369.276 288.288C369.276 288.629 369.159 288.917 368.924 289.152C368.69 289.387 368.402 289.504 368.06 289.504C367.719 289.504 367.426 289.387 367.18 289.152C366.946 288.917 366.828 288.629 366.828 288.288C366.828 287.936 366.946 287.643 367.18 287.408C367.426 287.173 367.719 287.056 368.06 287.056C368.402 287.056 368.69 287.173 368.924 287.408C369.159 287.643 369.276 287.936 369.276 288.288ZM376.444 293.04C376.444 292.901 376.422 292.768 376.38 292.64C376.337 292.501 376.284 292.373 376.22 292.256C376.081 292 375.793 291.872 375.356 291.872H374.332C373.894 291.872 373.601 292 373.452 292.256C373.324 292.501 373.26 292.763 373.26 293.04V299.376C373.26 299.877 372.966 300.128 372.38 300.128C371.772 300.128 371.468 299.877 371.468 299.376V292.896C371.468 292.021 371.756 291.381 372.332 290.976C372.918 290.571 373.489 290.368 374.044 290.368H375.66C375.905 290.368 376.177 290.416 376.476 290.512C376.774 290.608 377.062 290.757 377.34 290.96C377.606 290.757 377.884 290.608 378.172 290.512C378.47 290.416 378.753 290.368 379.02 290.368H380.62C381.185 290.368 381.75 290.571 382.316 290.976C382.902 291.371 383.196 292.011 383.196 292.896V299.376C383.196 299.877 382.897 300.128 382.3 300.128C381.702 300.128 381.404 299.877 381.404 299.376V293.04C381.404 292.901 381.388 292.763 381.356 292.624C381.324 292.485 381.265 292.357 381.18 292.24L381.196 292.256C381.11 292.117 381.004 292.021 380.876 291.968C380.748 291.904 380.561 291.872 380.316 291.872H379.308C378.86 291.872 378.566 292 378.428 292.256C378.289 292.491 378.22 292.752 378.22 293.04V299.376C378.22 299.877 377.926 300.128 377.34 300.128C376.742 300.128 376.444 299.877 376.444 299.376V293.04Z" fill="#8563D0"/>
<path d="M367.18 289.152L366.473 289.859C366.478 289.864 366.484 289.87 366.489 289.875L367.18 289.152ZM367.18 287.408L366.489 286.685C366.484 286.69 366.478 286.696 366.473 286.701L367.18 287.408ZM368.924 287.408L369.631 286.701L369.631 286.701L368.924 287.408ZM367.94 299.328C367.94 299.363 367.935 299.349 367.951 299.307C367.969 299.259 368.006 299.2 368.063 299.151C368.117 299.104 368.161 299.089 368.166 299.088C368.168 299.087 368.137 299.096 368.06 299.096V301.096C368.477 301.096 368.976 301.008 369.378 300.657C369.806 300.284 369.94 299.776 369.94 299.328H367.94ZM368.06 299.096C368.021 299.096 367.992 299.094 367.972 299.091C367.952 299.089 367.943 299.086 367.943 299.086C367.944 299.087 367.986 299.099 368.039 299.145C368.095 299.193 368.133 299.252 368.152 299.302C368.169 299.345 368.164 299.361 368.164 299.328H366.164C366.164 299.782 366.304 300.292 366.737 300.663C367.142 301.01 367.642 301.096 368.06 301.096V299.096ZM368.164 299.328V291.072H366.164V299.328H368.164ZM368.164 291.072C368.164 291.039 368.169 291.055 368.152 291.098C368.133 291.148 368.095 291.207 368.039 291.255C367.986 291.301 367.944 291.313 367.943 291.314C367.943 291.314 367.952 291.311 367.972 291.309C367.992 291.306 368.021 291.304 368.06 291.304V289.304C367.642 289.304 367.142 289.39 366.737 289.737C366.304 290.108 366.164 290.618 366.164 291.072H368.164ZM368.06 291.304C368.137 291.304 368.168 291.313 368.166 291.312C368.161 291.311 368.117 291.296 368.063 291.249C368.006 291.2 367.969 291.141 367.951 291.093C367.935 291.051 367.94 291.037 367.94 291.072H369.94C369.94 290.624 369.806 290.116 369.378 289.743C368.976 289.392 368.477 289.304 368.06 289.304V291.304ZM367.94 291.072V299.328H369.94V291.072H367.94ZM368.276 288.288C368.276 288.373 368.258 288.404 368.217 288.445L369.631 289.859C370.059 289.431 370.276 288.886 370.276 288.288H368.276ZM368.217 288.445C368.176 288.486 368.145 288.504 368.06 288.504V290.504C368.658 290.504 369.203 290.287 369.631 289.859L368.217 288.445ZM368.06 288.504C367.975 288.504 367.93 288.485 367.871 288.429L366.489 289.875C366.922 290.288 367.463 290.504 368.06 290.504V288.504ZM367.887 288.445C367.846 288.404 367.828 288.373 367.828 288.288H365.828C365.828 288.886 366.045 289.431 366.473 289.859L367.887 288.445ZM367.828 288.288C367.828 288.183 367.852 288.15 367.887 288.115L366.473 286.701C366.039 287.135 365.828 287.689 365.828 288.288H367.828ZM367.871 288.131C367.93 288.075 367.975 288.056 368.06 288.056V286.056C367.463 286.056 366.922 286.272 366.489 286.685L367.871 288.131ZM368.06 288.056C368.145 288.056 368.176 288.074 368.217 288.115L369.631 286.701C369.203 286.273 368.658 286.056 368.06 286.056V288.056ZM368.217 288.115C368.252 288.15 368.276 288.183 368.276 288.288H370.276C370.276 287.689 370.066 287.135 369.631 286.701L368.217 288.115ZM376.38 292.64L375.424 292.934C375.426 292.941 375.428 292.949 375.431 292.956L376.38 292.64ZM376.22 292.256L375.34 292.732L375.342 292.735L376.22 292.256ZM373.452 292.256L372.588 291.752C372.58 291.766 372.572 291.779 372.565 291.793L373.452 292.256ZM372.332 290.976L371.763 290.153L371.756 290.158L372.332 290.976ZM377.34 290.96L376.749 291.767C377.107 292.028 377.593 292.024 377.945 291.756L377.34 290.96ZM378.172 290.512L377.865 289.56L377.855 289.563L378.172 290.512ZM382.316 290.976L381.733 291.789C381.741 291.794 381.749 291.8 381.757 291.806L382.316 290.976ZM381.356 292.624L380.381 292.849L380.381 292.849L381.356 292.624ZM381.18 292.24L381.887 291.533C381.518 291.164 380.927 291.141 380.53 291.48C380.133 291.819 380.064 292.406 380.371 292.828L381.18 292.24ZM381.196 292.256L380.488 292.963C380.847 293.322 381.417 293.355 381.815 293.041C382.213 292.726 382.313 292.164 382.047 291.732L381.196 292.256ZM380.876 291.968L380.428 292.862C380.449 292.873 380.47 292.882 380.491 292.891L380.876 291.968ZM378.428 292.256L379.288 292.765C379.295 292.754 379.301 292.743 379.307 292.732L378.428 292.256ZM377.444 293.04C377.444 292.797 377.406 292.557 377.328 292.324L375.431 292.956C375.439 292.979 375.444 293.006 375.444 293.04H377.444ZM377.335 292.346C377.275 292.149 377.196 291.958 377.097 291.777L375.342 292.735C375.371 292.789 375.399 292.854 375.424 292.934L377.335 292.346ZM377.099 291.78C376.706 291.055 375.957 290.872 375.356 290.872V292.872C375.417 292.872 375.458 292.877 375.482 292.881C375.505 292.885 375.507 292.888 375.493 292.882C375.479 292.875 375.451 292.86 375.419 292.831C375.386 292.802 375.359 292.767 375.34 292.732L377.099 291.78ZM375.356 290.872H374.332V292.872H375.356V290.872ZM374.332 290.872C373.723 290.872 372.993 291.057 372.588 291.752L374.315 292.76C374.298 292.789 374.274 292.819 374.246 292.843C374.218 292.868 374.194 292.88 374.183 292.885C374.174 292.889 374.178 292.885 374.203 292.881C374.228 292.877 374.27 292.872 374.332 292.872V290.872ZM372.565 291.793C372.362 292.182 372.26 292.602 372.26 293.04H374.26C374.26 292.923 374.285 292.821 374.338 292.719L372.565 291.793ZM372.26 293.04V299.376H374.26V293.04H372.26ZM372.26 299.376C372.26 299.406 372.255 299.388 372.273 299.342C372.293 299.289 372.332 299.229 372.39 299.18C372.444 299.133 372.488 299.12 372.491 299.119C372.491 299.119 372.458 299.128 372.38 299.128V301.128C372.792 301.128 373.288 301.043 373.689 300.7C374.121 300.332 374.26 299.825 374.26 299.376H372.26ZM372.38 299.128C372.293 299.128 372.253 299.119 372.246 299.117C372.241 299.115 372.279 299.125 372.332 299.168C372.388 299.215 372.429 299.275 372.452 299.33C372.472 299.38 372.468 299.402 372.468 299.376H370.468C370.468 299.837 370.617 300.346 371.059 300.712C371.465 301.046 371.963 301.128 372.38 301.128V299.128ZM372.468 299.376V292.896H370.468V299.376H372.468ZM372.468 292.896C372.468 292.258 372.662 291.966 372.907 291.794L371.756 290.158C370.849 290.797 370.468 291.784 370.468 292.896H372.468ZM372.9 291.799C373.367 291.476 373.743 291.368 374.044 291.368V289.368C373.235 289.368 372.469 289.665 371.763 290.153L372.9 291.799ZM374.044 291.368H375.66V289.368H374.044V291.368ZM375.66 291.368C375.777 291.368 375.944 291.391 376.169 291.464L376.782 289.56C376.41 289.441 376.033 289.368 375.66 289.368V291.368ZM376.169 291.464C376.357 291.524 376.55 291.622 376.749 291.767L377.93 290.153C377.574 289.893 377.191 289.692 376.782 289.56L376.169 291.464ZM377.945 291.756C378.133 291.613 378.314 291.519 378.488 291.461L377.855 289.563C377.453 289.697 377.079 289.902 376.734 290.164L377.945 291.756ZM378.478 291.464C378.694 291.394 378.873 291.368 379.02 291.368V289.368C378.633 289.368 378.246 289.438 377.865 289.56L378.478 291.464ZM379.02 291.368H380.62V289.368H379.02V291.368ZM380.62 291.368C380.932 291.368 381.298 291.477 381.733 291.789L382.898 290.163C382.203 289.665 381.438 289.368 380.62 289.368V291.368ZM381.757 291.806C381.997 291.967 382.196 292.249 382.196 292.896H384.196C384.196 291.773 383.807 290.774 382.874 290.146L381.757 291.806ZM382.196 292.896V299.376H384.196V292.896H382.196ZM382.196 299.376C382.196 299.404 382.191 299.384 382.21 299.336C382.232 299.282 382.272 299.222 382.329 299.174C382.382 299.129 382.423 299.118 382.422 299.118C382.419 299.119 382.382 299.128 382.3 299.128V301.128C382.714 301.128 383.211 301.045 383.614 300.706C384.052 300.339 384.196 299.831 384.196 299.376H382.196ZM382.3 299.128C382.217 299.128 382.18 299.119 382.177 299.118C382.176 299.118 382.217 299.129 382.27 299.174C382.327 299.222 382.367 299.282 382.389 299.336C382.408 299.384 382.404 299.404 382.404 299.376H380.404C380.404 299.831 380.547 300.339 380.985 300.706C381.388 301.045 381.885 301.128 382.3 301.128V299.128ZM382.404 299.376V293.04H380.404V299.376H382.404ZM382.404 293.04C382.404 292.824 382.378 292.61 382.33 292.399L380.381 292.849C380.397 292.916 380.404 292.979 380.404 293.04H382.404ZM382.33 292.399C382.267 292.127 382.151 291.876 381.988 291.652L380.371 292.828C380.379 292.839 380.38 292.844 380.381 292.849L382.33 292.399ZM380.472 292.947L380.488 292.963L381.903 291.549L381.887 291.533L380.472 292.947ZM382.047 291.732C381.872 291.447 381.614 291.192 381.26 291.045L380.491 292.891C380.447 292.873 380.41 292.848 380.383 292.823C380.356 292.799 380.345 292.781 380.344 292.78L382.047 291.732ZM381.323 291.074C380.99 290.907 380.62 290.872 380.316 290.872V292.872C380.397 292.872 380.447 292.878 380.471 292.882C380.496 292.886 380.475 292.886 380.428 292.862L381.323 291.074ZM380.316 290.872H379.308V292.872H380.316V290.872ZM379.308 290.872C378.708 290.872 377.945 291.048 377.548 291.78L379.307 292.732C379.287 292.77 379.258 292.806 379.225 292.835C379.192 292.864 379.164 292.879 379.151 292.885C379.14 292.89 379.144 292.886 379.171 292.881C379.198 292.877 379.242 292.872 379.308 292.872V290.872ZM377.567 291.747C377.332 292.145 377.22 292.584 377.22 293.04H379.22C379.22 292.92 379.246 292.836 379.288 292.765L377.567 291.747ZM377.22 293.04V299.376H379.22V293.04H377.22ZM377.22 299.376C377.22 299.406 377.215 299.388 377.233 299.342C377.253 299.289 377.292 299.229 377.35 299.18C377.404 299.133 377.448 299.12 377.451 299.119C377.451 299.119 377.418 299.128 377.34 299.128V301.128C377.752 301.128 378.248 301.043 378.649 300.7C379.081 300.332 379.22 299.825 379.22 299.376H377.22ZM377.34 299.128C377.257 299.128 377.22 299.119 377.217 299.118C377.216 299.118 377.257 299.129 377.31 299.174C377.367 299.222 377.407 299.282 377.429 299.336C377.448 299.384 377.444 299.404 377.444 299.376H375.444C375.444 299.831 375.587 300.339 376.025 300.706C376.428 301.045 376.925 301.128 377.34 301.128V299.128ZM377.444 299.376V293.04H375.444V299.376H377.444Z" fill="black" mask="url(#path-5-outside-2_49_19)"/>
<mask id="path-7-outside-3_49_19" maskUnits="userSpaceOnUse" x="365" y="341" width="20" height="13" fill="black">
<rect fill="white" x="365" y="341" width="20" height="13"/>
<path d="M371.137 342.368C371.415 342.368 371.697 342.427 371.985 342.544C372.284 342.661 372.572 342.811 372.849 342.992H372.833C373.111 343.195 373.324 343.461 373.473 343.792C373.623 344.112 373.697 344.485 373.697 344.912V349.456C373.697 350.331 373.409 350.976 372.833 351.392C372.268 351.797 371.703 352 371.137 352H368.577C368.3 352 368.017 351.952 367.729 351.856C367.441 351.76 367.159 351.605 366.881 351.392C366.305 350.987 366.017 350.341 366.017 349.456V344.912C366.017 344.485 366.092 344.112 366.241 343.792C366.391 343.461 366.604 343.195 366.881 342.992H366.865C367.132 342.811 367.415 342.661 367.713 342.544C368.012 342.427 368.3 342.368 368.577 342.368H371.137ZM370.849 350.496C371.244 350.496 371.521 350.384 371.681 350.16C371.852 349.936 371.937 349.696 371.937 349.44V344.928C371.937 344.661 371.852 344.421 371.681 344.208C371.521 343.984 371.244 343.872 370.849 343.872H368.865C368.471 343.872 368.188 343.984 368.017 344.208C367.857 344.421 367.777 344.661 367.777 344.928V349.44C367.777 349.696 367.857 349.936 368.017 350.16C368.188 350.384 368.471 350.496 368.865 350.496H370.849ZM377.801 351.328C377.801 351.84 377.507 352.096 376.921 352.096C376.334 352.096 376.041 351.84 376.041 351.328V344.896C376.041 344.459 376.11 344.08 376.249 343.76C376.387 343.44 376.606 343.179 376.905 342.976C377.47 342.571 378.035 342.368 378.601 342.368H381.177C381.721 342.368 382.286 342.571 382.873 342.976C383.449 343.381 383.737 344.021 383.737 344.896V351.328C383.737 351.84 383.443 352.096 382.857 352.096C382.27 352.096 381.977 351.84 381.977 351.328V345.04C381.977 344.763 381.891 344.496 381.721 344.24L381.737 344.256C381.598 344 381.315 343.872 380.889 343.872H378.889C378.451 343.872 378.163 344 378.025 344.256C377.875 344.48 377.801 344.741 377.801 345.04V351.328Z"/>
</mask>
<path d="M371.137 342.368C371.415 342.368 371.697 342.427 371.985 342.544C372.284 342.661 372.572 342.811 372.849 342.992H372.833C373.111 343.195 373.324 343.461 373.473 343.792C373.623 344.112 373.697 344.485 373.697 344.912V349.456C373.697 350.331 373.409 350.976 372.833 351.392C372.268 351.797 371.703 352 371.137 352H368.577C368.3 352 368.017 351.952 367.729 351.856C367.441 351.76 367.159 351.605 366.881 351.392C366.305 350.987 366.017 350.341 366.017 349.456V344.912C366.017 344.485 366.092 344.112 366.241 343.792C366.391 343.461 366.604 343.195 366.881 342.992H366.865C367.132 342.811 367.415 342.661 367.713 342.544C368.012 342.427 368.3 342.368 368.577 342.368H371.137ZM370.849 350.496C371.244 350.496 371.521 350.384 371.681 350.16C371.852 349.936 371.937 349.696 371.937 349.44V344.928C371.937 344.661 371.852 344.421 371.681 344.208C371.521 343.984 371.244 343.872 370.849 343.872H368.865C368.471 343.872 368.188 343.984 368.017 344.208C367.857 344.421 367.777 344.661 367.777 344.928V349.44C367.777 349.696 367.857 349.936 368.017 350.16C368.188 350.384 368.471 350.496 368.865 350.496H370.849ZM377.801 351.328C377.801 351.84 377.507 352.096 376.921 352.096C376.334 352.096 376.041 351.84 376.041 351.328V344.896C376.041 344.459 376.11 344.08 376.249 343.76C376.387 343.44 376.606 343.179 376.905 342.976C377.47 342.571 378.035 342.368 378.601 342.368H381.177C381.721 342.368 382.286 342.571 382.873 342.976C383.449 343.381 383.737 344.021 383.737 344.896V351.328C383.737 351.84 383.443 352.096 382.857 352.096C382.27 352.096 381.977 351.84 381.977 351.328V345.04C381.977 344.763 381.891 344.496 381.721 344.24L381.737 344.256C381.598 344 381.315 343.872 380.889 343.872H378.889C378.451 343.872 378.163 344 378.025 344.256C377.875 344.48 377.801 344.741 377.801 345.04V351.328Z" fill="#8563D0"/>
<path d="M371.985 342.544L371.608 343.47L371.62 343.475L371.985 342.544ZM372.849 342.992V343.992C373.292 343.992 373.682 343.701 373.808 343.278C373.934 342.854 373.767 342.397 373.397 342.155L372.849 342.992ZM372.833 342.992V341.992C372.401 341.992 372.017 342.27 371.883 342.682C371.749 343.093 371.894 343.544 372.243 343.799L372.833 342.992ZM373.473 343.792L372.562 344.204L372.567 344.215L373.473 343.792ZM372.833 351.392L373.416 352.205L373.419 352.203L372.833 351.392ZM367.729 351.856L367.413 352.805L367.413 352.805L367.729 351.856ZM366.881 351.392L367.491 350.599C367.48 350.591 367.469 350.582 367.457 350.574L366.881 351.392ZM366.241 343.792L367.148 344.215L367.153 344.204L366.241 343.792ZM366.881 342.992L367.472 343.799C367.821 343.544 367.966 343.093 367.832 342.682C367.698 342.27 367.314 341.992 366.881 341.992V342.992ZM366.865 342.992L366.303 342.165C365.94 342.412 365.781 342.867 365.91 343.286C366.039 343.706 366.427 343.992 366.865 343.992V342.992ZM367.713 342.544L368.079 343.475L368.079 343.475L367.713 342.544ZM371.681 350.16L370.886 349.554C370.88 349.562 370.874 349.57 370.868 349.579L371.681 350.16ZM371.681 344.208L370.868 344.789C370.878 344.804 370.889 344.819 370.901 344.833L371.681 344.208ZM368.017 344.208L367.222 343.602L367.217 343.608L368.017 344.208ZM368.017 350.16L367.204 350.741C367.21 350.75 367.216 350.758 367.222 350.766L368.017 350.16ZM371.137 343.368C371.271 343.368 371.425 343.396 371.608 343.47L372.363 341.618C371.969 341.458 371.559 341.368 371.137 341.368V343.368ZM371.62 343.475C371.853 343.566 372.08 343.684 372.302 343.829L373.397 342.155C373.064 341.938 372.715 341.756 372.351 341.613L371.62 343.475ZM372.849 341.992H372.833V343.992H372.849V341.992ZM372.243 343.799C372.373 343.894 372.48 344.021 372.562 344.204L374.385 343.38C374.169 342.901 373.848 342.495 373.424 342.185L372.243 343.799ZM372.567 344.215C372.643 344.378 372.697 344.602 372.697 344.912H374.697C374.697 344.369 374.602 343.846 374.38 343.369L372.567 344.215ZM372.697 344.912V349.456H374.697V344.912H372.697ZM372.697 349.456C372.697 350.093 372.503 350.397 372.248 350.581L373.419 352.203C374.316 351.555 374.697 350.568 374.697 349.456H372.697ZM372.251 350.579C371.816 350.891 371.45 351 371.137 351V353C371.956 353 372.721 352.703 373.416 352.205L372.251 350.579ZM371.137 351H368.577V353H371.137V351ZM368.577 351C368.417 351 368.241 350.973 368.046 350.907L367.413 352.805C367.794 352.931 368.183 353 368.577 353V351ZM368.046 350.907C367.878 350.852 367.693 350.755 367.491 350.599L366.272 352.185C366.624 352.456 367.005 352.668 367.413 352.805L368.046 350.907ZM367.457 350.574C367.215 350.404 367.017 350.11 367.017 349.456H365.017C365.017 350.573 365.395 351.569 366.306 352.21L367.457 350.574ZM367.017 349.456V344.912H365.017V349.456H367.017ZM367.017 344.912C367.017 344.602 367.072 344.378 367.148 344.215L365.335 343.369C365.113 343.846 365.017 344.369 365.017 344.912H367.017ZM367.153 344.204C367.235 344.021 367.342 343.894 367.472 343.799L366.291 342.185C365.867 342.495 365.546 342.901 365.33 343.38L367.153 344.204ZM366.881 341.992H366.865V343.992H366.881V341.992ZM367.428 343.819C367.633 343.679 367.85 343.565 368.079 343.475L367.348 341.613C366.98 341.758 366.631 341.942 366.303 342.165L367.428 343.819ZM368.079 343.475C368.279 343.396 368.443 343.368 368.577 343.368V341.368C368.157 341.368 367.745 341.457 367.348 341.613L368.079 343.475ZM368.577 343.368H371.137V341.368H368.577V343.368ZM370.849 351.496C371.418 351.496 372.075 351.33 372.495 350.741L370.868 349.579C370.885 349.554 370.907 349.532 370.93 349.514C370.953 349.496 370.971 349.488 370.979 349.485C370.986 349.482 370.981 349.485 370.959 349.489C370.937 349.492 370.902 349.496 370.849 349.496V351.496ZM372.477 350.766C372.766 350.386 372.937 349.937 372.937 349.44H370.937C370.937 349.455 370.938 349.486 370.886 349.554L372.477 350.766ZM372.937 349.44V344.928H370.937V349.44H372.937ZM372.937 344.928C372.937 344.428 372.771 343.969 372.462 343.583L370.901 344.833C370.933 344.873 370.937 344.894 370.937 344.928H372.937ZM372.495 343.627C372.075 343.038 371.418 342.872 370.849 342.872V344.872C370.902 344.872 370.937 344.876 370.959 344.879C370.981 344.883 370.986 344.886 370.979 344.883C370.971 344.88 370.953 344.872 370.93 344.854C370.907 344.836 370.885 344.814 370.868 344.789L372.495 343.627ZM370.849 342.872H368.865V344.872H370.849V342.872ZM368.865 342.872C368.292 342.872 367.65 343.04 367.222 343.602L368.813 344.814C368.798 344.833 368.781 344.85 368.762 344.864C368.744 344.878 368.73 344.884 368.726 344.886C368.722 344.887 368.73 344.883 368.754 344.88C368.777 344.876 368.814 344.872 368.865 344.872V342.872ZM367.217 343.608C366.928 343.994 366.777 344.445 366.777 344.928H368.777C368.777 344.878 368.787 344.848 368.817 344.808L367.217 343.608ZM366.777 344.928V349.44H368.777V344.928H366.777ZM366.777 349.44C366.777 349.92 366.932 350.361 367.204 350.741L368.831 349.579C368.783 349.511 368.777 349.472 368.777 349.44H366.777ZM367.222 350.766C367.65 351.328 368.292 351.496 368.865 351.496V349.496C368.814 349.496 368.777 349.492 368.754 349.488C368.73 349.485 368.722 349.481 368.726 349.482C368.73 349.484 368.744 349.49 368.762 349.504C368.781 349.518 368.798 349.535 368.813 349.554L367.222 350.766ZM368.865 351.496H370.849V349.496H368.865V351.496ZM376.249 343.76L375.331 343.362L375.331 343.362L376.249 343.76ZM376.905 342.976L377.466 343.803C377.473 343.799 377.48 343.794 377.487 343.789L376.905 342.976ZM382.873 342.976L383.448 342.158L383.441 342.153L382.873 342.976ZM381.721 344.24L382.428 343.533C382.064 343.169 381.484 343.141 381.087 343.467C380.689 343.793 380.603 344.367 380.889 344.795L381.721 344.24ZM381.737 344.256L381.03 344.963C381.381 345.314 381.936 345.355 382.335 345.058C382.733 344.761 382.852 344.216 382.616 343.78L381.737 344.256ZM378.025 344.256L378.857 344.811C378.874 344.785 378.889 344.759 378.904 344.732L378.025 344.256ZM376.801 351.328C376.801 351.363 376.795 351.349 376.811 351.307C376.83 351.259 376.866 351.2 376.923 351.151C376.977 351.104 377.021 351.089 377.026 351.088C377.028 351.087 376.998 351.096 376.921 351.096V353.096C377.337 353.096 377.836 353.008 378.238 352.657C378.666 352.284 378.801 351.776 378.801 351.328H376.801ZM376.921 351.096C376.843 351.096 376.813 351.087 376.815 351.088C376.82 351.089 376.864 351.104 376.918 351.151C376.975 351.2 377.011 351.259 377.03 351.307C377.046 351.349 377.041 351.363 377.041 351.328H375.041C375.041 351.776 375.175 352.284 375.603 352.657C376.005 353.008 376.504 353.096 376.921 353.096V351.096ZM377.041 351.328V344.896H375.041V351.328H377.041ZM377.041 344.896C377.041 344.562 377.094 344.325 377.166 344.158L375.331 343.362C375.126 343.835 375.041 344.355 375.041 344.896H377.041ZM377.166 344.158C377.227 344.018 377.319 343.903 377.466 343.803L376.343 342.149C375.893 342.454 375.548 342.862 375.331 343.362L377.166 344.158ZM377.487 343.789C377.922 343.477 378.288 343.368 378.601 343.368V341.368C377.782 341.368 377.017 341.665 376.322 342.163L377.487 343.789ZM378.601 343.368H381.177V341.368H378.601V343.368ZM381.177 343.368C381.463 343.368 381.833 343.473 382.304 343.799L383.441 342.153C382.739 341.668 381.978 341.368 381.177 341.368V343.368ZM382.297 343.794C382.542 343.966 382.737 344.258 382.737 344.896H384.737C384.737 343.784 384.355 342.797 383.448 342.158L382.297 343.794ZM382.737 344.896V351.328H384.737V344.896H382.737ZM382.737 351.328C382.737 351.363 382.731 351.349 382.747 351.307C382.766 351.259 382.802 351.2 382.859 351.151C382.913 351.104 382.957 351.089 382.962 351.088C382.964 351.087 382.934 351.096 382.857 351.096V353.096C383.273 353.096 383.772 353.008 384.174 352.657C384.602 352.284 384.737 351.776 384.737 351.328H382.737ZM382.857 351.096C382.779 351.096 382.749 351.087 382.751 351.088C382.756 351.089 382.8 351.104 382.854 351.151C382.911 351.2 382.947 351.259 382.966 351.307C382.982 351.349 382.977 351.363 382.977 351.328H380.977C380.977 351.776 381.111 352.284 381.539 352.657C381.941 353.008 382.44 353.096 382.857 353.096V351.096ZM382.977 351.328V345.04H380.977V351.328H382.977ZM382.977 345.04C382.977 344.544 382.82 344.087 382.553 343.685L380.889 344.795C380.962 344.905 380.977 344.981 380.977 345.04H382.977ZM381.014 344.947L381.03 344.963L382.444 343.549L382.428 343.533L381.014 344.947ZM382.616 343.78C382.228 343.063 381.493 342.872 380.889 342.872V344.872C380.946 344.872 380.983 344.876 381.004 344.88C381.024 344.884 381.023 344.886 381.008 344.879C380.992 344.872 380.963 344.856 380.932 344.827C380.9 344.798 380.875 344.765 380.857 344.732L382.616 343.78ZM380.889 342.872H378.889V344.872H380.889V342.872ZM378.889 342.872C378.287 342.872 377.538 343.055 377.145 343.78L378.904 344.732C378.885 344.767 378.858 344.802 378.826 344.831C378.794 344.86 378.765 344.875 378.751 344.882C378.737 344.888 378.739 344.885 378.762 344.881C378.786 344.877 378.827 344.872 378.889 344.872V342.872ZM377.193 343.701C376.922 344.107 376.801 344.566 376.801 345.04H378.801C378.801 344.916 378.829 344.853 378.857 344.811L377.193 343.701ZM376.801 345.04V351.328H378.801V345.04H376.801Z" fill="black" mask="url(#path-7-outside-3_49_19)"/>
</g>
<g filter="url(#filter2_d_49_19)">
<g filter="url(#filter3_ii_49_19)">
<path d="M363.889 126C339.084 126 314.521 130.886 291.604 140.378C268.687 149.871 247.864 163.784 230.324 181.324C212.784 198.864 198.871 219.687 189.378 242.604C179.886 265.521 175 290.084 175 314.889L250.556 314.889C250.556 300.006 253.487 285.268 259.183 271.518C264.878 257.768 273.226 245.274 283.75 234.75C294.274 224.226 306.768 215.878 320.518 210.183C334.268 204.487 349.006 201.556 363.889 201.556L363.889 126Z" fill="#C00F0F"/>
</g>
<g filter="url(#filter4_ii_49_19)">
<path d="M386.111 126C410.916 126 435.479 130.886 458.396 140.378C481.313 149.871 502.136 163.784 519.676 181.324C537.216 198.864 551.129 219.687 560.622 242.604C570.114 265.521 575 290.084 575 314.889L499.444 314.889C499.444 300.006 496.513 285.268 490.817 271.518C485.122 257.768 476.774 245.274 466.25 234.75C455.726 224.226 443.232 215.878 429.482 210.183C415.732 204.487 400.994 201.556 386.111 201.556L386.111 126Z" fill="#48C00F"/>
</g>
<g filter="url(#filter5_ii_49_19)">
<path d="M386.111 526C410.916 526 435.479 521.114 458.396 511.622C481.313 502.129 502.136 488.216 519.676 470.676C537.216 453.136 551.129 432.313 560.622 409.396C570.114 386.479 575 361.916 575 337.111L499.444 337.111C499.444 351.994 496.513 366.732 490.817 380.482C485.122 394.232 476.774 406.726 466.25 417.25C455.726 427.774 443.232 436.122 429.482 441.817C415.732 447.513 400.994 450.444 386.111 450.444L386.111 526Z" fill="#1D0FC0"/>
</g>
<g filter="url(#filter6_ii_49_19)">
<path d="M363.889 526C339.084 526 314.521 521.114 291.604 511.622C268.687 502.129 247.864 488.216 230.324 470.676C212.784 453.136 198.871 432.313 189.378 409.396C179.886 386.479 175 361.916 175 337.111L250.556 337.111C250.556 351.994 253.487 366.732 259.183 380.482C264.878 394.232 273.226 406.726 283.75 417.25C294.274 427.774 306.768 436.122 320.518 441.817C334.268 447.513 349.006 450.444 363.889 450.444L363.889 526Z" fill="#C0AF0F"/>
</g>
</g>
<g filter="url(#filter7_di_49_19)">
<path d="M202.385 688V661.888C202.385 660.523 202.619 659.627 203.089 659.2C203.558 658.773 204.475 658.56 205.841 658.56H235.409V664.064H212.881V670.208H233.361V675.648H212.881V682.496H235.409V688H202.385ZM257.455 688C255.492 688 254.02 687.659 253.038 686.976C252.057 686.251 251.182 685.013 250.414 683.264L240.174 658.56H251.694L258.67 677.312C258.884 677.952 259.14 678.4 259.438 678.656C259.737 678.912 260.057 679.04 260.399 679.04H260.91L268.782 658.56H276.59L264.174 688H257.455ZM282.85 688C282.85 683.648 282.85 679.296 282.85 674.944C282.85 670.592 282.85 666.24 282.85 661.888C282.85 661.163 282.892 660.565 282.978 660.096C283.106 659.584 283.404 659.2 283.874 658.944C284.386 658.688 285.196 658.56 286.306 658.56H293.346V688H282.85ZM313.265 658.56V682.496H332.145V688H302.769V662.016C302.769 661.248 302.812 660.608 302.897 660.096C303.025 659.584 303.324 659.2 303.793 658.944C304.263 658.688 305.073 658.56 306.225 658.56H313.265ZM357.206 681.024C358.273 681.493 359.638 681.856 361.302 682.112C362.966 682.325 364.694 682.453 366.486 682.496C368.278 682.539 369.857 682.56 371.222 682.56C371.734 682.56 372.374 682.56 373.142 682.56C373.953 682.56 374.614 682.539 375.126 682.496C376.278 682.496 377.259 682.389 378.07 682.176C378.881 681.92 379.478 681.536 379.862 681.024C380.289 680.512 380.502 679.787 380.502 678.848C380.502 677.739 380.182 677.013 379.542 676.672C378.902 676.288 377.921 676.096 376.598 676.096C376.129 676.096 375.574 676.096 374.934 676.096C374.337 676.096 373.569 676.096 372.63 676.096C371.691 676.096 370.475 676.096 368.982 676.096C367.617 676.096 366.23 676.032 364.822 675.904C363.457 675.776 362.219 675.477 361.11 675.008C360.001 674.496 359.105 673.707 358.422 672.64C357.782 671.531 357.462 670.016 357.462 668.096C357.462 665.792 357.846 664 358.614 662.72C359.425 661.397 360.534 660.416 361.942 659.776C363.393 659.136 365.099 658.731 367.062 658.56C369.067 658.389 371.265 658.304 373.654 658.304C375.105 658.304 376.662 658.325 378.326 658.368C380.033 658.411 381.611 658.475 383.062 658.56C384.555 658.645 385.707 658.795 386.518 659.008C387.969 659.093 389.078 659.477 389.846 660.16C390.657 660.843 391.062 661.696 391.062 662.72C391.062 662.891 391.062 663.189 391.062 663.616C391.062 664 391.062 664.384 391.062 664.768C391.062 665.152 391.062 665.365 391.062 665.408C390.721 665.109 390.081 664.875 389.142 664.704C388.246 664.491 387.179 664.341 385.942 664.256C384.747 664.171 383.553 664.107 382.358 664.064C381.206 664.021 380.182 664 379.286 664H373.526C372.374 664 371.393 664.107 370.582 664.32C369.814 664.491 369.238 664.811 368.854 665.28C368.47 665.749 368.278 666.411 368.278 667.264C368.278 667.947 368.406 668.501 368.662 668.928C368.918 669.312 369.323 669.589 369.878 669.76C370.433 669.931 371.158 670.016 372.054 670.016C374.657 670.016 376.747 670.016 378.326 670.016C379.905 670.016 380.929 670.016 381.398 670.016C383.446 670.016 385.238 670.187 386.774 670.528C388.31 670.869 389.505 671.637 390.358 672.832C391.211 674.027 391.638 675.861 391.638 678.336C391.638 680.683 391.169 682.56 390.23 683.968C389.291 685.333 387.99 686.336 386.326 686.976C384.705 687.616 382.806 688 380.63 688.128C378.582 688.256 376.641 688.32 374.806 688.32C372.971 688.32 371.03 688.32 368.982 688.32C367.275 688.277 365.697 688.192 364.246 688.064C362.838 687.979 361.601 687.808 360.534 687.552C359.467 687.253 358.635 686.869 358.038 686.4C357.483 685.888 357.206 685.227 357.206 684.416V681.024ZM399.655 688C399.655 683.648 399.655 679.296 399.655 674.944C399.655 670.592 399.655 666.24 399.655 661.888C399.655 661.163 399.697 660.565 399.783 660.096C399.911 659.584 400.209 659.2 400.679 658.944C401.191 658.688 402.001 658.56 403.111 658.56H410.151V688H399.655ZM419.574 688V661.824C419.574 660.373 419.83 659.477 420.342 659.136C420.854 658.752 421.921 658.56 423.542 658.56H431.542L439.03 675.264L439.158 675.904L439.286 675.84L439.414 675.2L446.646 658.56H455.158C456.694 658.56 457.676 658.773 458.102 659.2C458.572 659.627 458.806 660.501 458.806 661.824V684.736C458.806 685.803 458.7 686.571 458.486 687.04C458.273 687.467 457.889 687.744 457.334 687.872C456.78 687.957 455.969 688 454.902 688H448.31V669.824L447.862 671.616L440.758 688H434.422L427.382 671.808L426.998 670.016V688H419.574ZM485.335 688.448C481.922 688.448 479.021 688.213 476.631 687.744C474.242 687.275 472.279 686.485 470.743 685.376C469.25 684.224 468.141 682.667 467.415 680.704C466.733 678.741 466.391 676.267 466.391 673.28C466.391 670.208 466.754 667.712 467.479 665.792C468.205 663.829 469.335 662.293 470.871 661.184C472.45 660.032 474.434 659.221 476.823 658.752C479.255 658.283 482.157 658.048 485.527 658.048C488.898 658.048 491.778 658.283 494.167 658.752C496.557 659.221 498.498 660.032 499.991 661.184C501.527 662.293 502.637 663.829 503.319 665.792C504.045 667.755 504.407 670.251 504.407 673.28C504.407 676.309 504.045 678.805 503.319 680.768C502.594 682.731 501.463 684.288 499.927 685.44C498.391 686.549 496.407 687.339 493.975 687.808C491.586 688.235 488.706 688.448 485.335 688.448ZM485.399 683.008C486.807 683.008 488.023 682.88 489.047 682.624C490.114 682.325 490.967 681.813 491.607 681.088C492.29 680.363 492.781 679.381 493.079 678.144C493.421 676.864 493.591 675.243 493.591 673.28C493.591 671.275 493.421 669.653 493.079 668.416C492.781 667.136 492.29 666.155 491.607 665.472C490.967 664.747 490.114 664.256 489.047 664C488.023 663.701 486.807 663.552 485.399 663.552C483.949 663.552 482.69 663.701 481.623 664C480.599 664.256 479.767 664.747 479.127 665.472C478.487 666.155 477.997 667.136 477.655 668.416C477.314 669.653 477.143 671.275 477.143 673.28C477.143 675.243 477.314 676.864 477.655 678.144C477.997 679.381 478.487 680.363 479.127 681.088C479.767 681.813 480.599 682.325 481.623 682.624C482.69 682.88 483.949 683.008 485.399 683.008ZM512.04 688V662.144C512.04 660.651 512.253 659.691 512.68 659.264C513.106 658.795 514.109 658.56 515.688 658.56H525.608L539.56 677.376L539.944 678.848V658.56H547.624C547.538 658.645 547.474 658.923 547.432 659.392C547.432 659.819 547.432 660.309 547.432 660.864C547.432 661.376 547.432 661.845 547.432 662.272V684.864C547.432 686.272 547.133 687.147 546.536 687.488C545.938 687.829 544.829 688 543.208 688H534.184L519.912 668.8L519.592 667.2V688H512.04Z" fill="url(#paint1_linear_49_19)"/>
</g>
<defs>
<filter id="filter0_ii_49_19" x="109.012" y="3.26236" width="532.879" height="660.738" filterUnits="userSpaceOnUse" color-interpolation-filters="sRGB">
<feFlood flood-opacity="0" result="BackgroundImageFix"/>
<feBlend mode="normal" in="SourceGraphic" in2="BackgroundImageFix" result="shape"/>
<feColorMatrix in="SourceAlpha" type="matrix" values="0 0 0 0 0 0 0 0 0 0 0 0 0 0 0 0 0 0 127 0" result="hardAlpha"/>
<feOffset dy="-25"/>
<feGaussianBlur stdDeviation="17.5"/>
<feComposite in2="hardAlpha" operator="arithmetic" k2="-1" k3="1"/>
<feColorMatrix type="matrix" values="0 0 0 0 0 0 0 0 0 0 0 0 0 0 0 0 0 0 0.25 0"/>
<feBlend mode="normal" in2="shape" result="effect1_innerShadow_49_19"/>
<feColorMatrix in="SourceAlpha" type="matrix" values="0 0 0 0 0 0 0 0 0 0 0 0 0 0 0 0 0 0 127 0" result="hardAlpha"/>
<feOffset dy="50"/>
<feGaussianBlur stdDeviation="25"/>
<feComposite in2="hardAlpha" operator="arithmetic" k2="-1" k3="1"/>
<feColorMatrix type="matrix" values="0 0 0 0 0.77768 0 0 0 0 0.0923611 0 0 0 0 0.791667 0 0 0 0.2 0"/>
<feBlend mode="normal" in2="effect1_innerShadow_49_19" result="effect2_innerShadow_49_19"/>
</filter>
<filter id="filter1_dii_49_19" x="250" y="201" width="250" height="250" filterUnits="userSpaceOnUse" color-interpolation-filters="sRGB">
<feFlood flood-opacity="0" result="BackgroundImageFix"/>
<feColorMatrix in="SourceAlpha" type="matrix" values="0 0 0 0 0 0 0 0 0 0 0 0 0 0 0 0 0 0 127 0" result="hardAlpha"/>
<feOffset/>
<feGaussianBlur stdDeviation="12.5"/>
<feColorMatrix type="matrix" values="0 0 0 0 1 0 0 0 0 1 0 0 0 0 1 0 0 0 0.5 0"/>
<feBlend mode="normal" in2="BackgroundImageFix" result="effect1_dropShadow_49_19"/>
<feBlend mode="normal" in="SourceGraphic" in2="effect1_dropShadow_49_19" result="shape"/>
<feColorMatrix in="SourceAlpha" type="matrix" values="0 0 0 0 0 0 0 0 0 0 0 0 0 0 0 0 0 0 127 0" result="hardAlpha"/>
<feOffset dx="10" dy="10"/>
<feGaussianBlur stdDeviation="7.5"/>
<feComposite in2="hardAlpha" operator="arithmetic" k2="-1" k3="1"/>
<feColorMatrix type="matrix" values="0 0 0 0 0 0 0 0 0 0 0 0 0 0 0 0 0 0 0.25 0"/>
<feBlend mode="normal" in2="shape" result="effect2_innerShadow_49_19"/>
<feColorMatrix in="SourceAlpha" type="matrix" values="0 0 0 0 0 0 0 0 0 0 0 0 0 0 0 0 0 0 127 0" result="hardAlpha"/>
<feOffset dx="-10" dy="-10"/>
<feGaussianBlur stdDeviation="7.5"/>
<feComposite in2="hardAlpha" operator="arithmetic" k2="-1" k3="1"/>
<feColorMatrix type="matrix" values="0 0 0 0 0 0 0 0 0 0 0 0 0 0 0 0 0 0 0.25 0"/>
<feBlend mode="normal" in2="effect2_innerShadow_49_19" result="effect3_innerShadow_49_19"/>
</filter>
<filter id="filter2_d_49_19" x="160" y="111" width="450" height="450" filterUnits="userSpaceOnUse" color-interpolation-filters="sRGB">
<feFlood flood-opacity="0" result="BackgroundImageFix"/>
<feColorMatrix in="SourceAlpha" type="matrix" values="0 0 0 0 0 0 0 0 0 0 0 0 0 0 0 0 0 0 127 0" result="hardAlpha"/>
<feOffset dx="10" dy="10"/>
<feGaussianBlur stdDeviation="12.5"/>
<feComposite in2="hardAlpha" operator="out"/>
<feColorMatrix type="matrix" values="0 0 0 0 0 0 0 0 0 0 0 0 0 0 0 0 0 0 0.5 0"/>
<feBlend mode="normal" in2="BackgroundImageFix" result="effect1_dropShadow_49_19"/>
<feBlend mode="normal" in="SourceGraphic" in2="effect1_dropShadow_49_19" result="shape"/>
</filter>
<filter id="filter3_ii_49_19" x="165" y="116" width="208.889" height="208.889" filterUnits="userSpaceOnUse" color-interpolation-filters="sRGB">
<feFlood flood-opacity="0" result="BackgroundImageFix"/>
<feBlend mode="normal" in="SourceGraphic" in2="BackgroundImageFix" result="shape"/>
<feColorMatrix in="SourceAlpha" type="matrix" values="0 0 0 0 0 0 0 0 0 0 0 0 0 0 0 0 0 0 127 0" result="hardAlpha"/>
<feOffset dx="10" dy="10"/>
<feGaussianBlur stdDeviation="7.5"/>
<feComposite in2="hardAlpha" operator="arithmetic" k2="-1" k3="1"/>
<feColorMatrix type="matrix" values="0 0 0 0 1 0 0 0 0 1 0 0 0 0 1 0 0 0 0.25 0"/>
<feBlend mode="normal" in2="shape" result="effect1_innerShadow_49_19"/>
<feColorMatrix in="SourceAlpha" type="matrix" values="0 0 0 0 0 0 0 0 0 0 0 0 0 0 0 0 0 0 127 0" result="hardAlpha"/>
<feOffset dx="-10" dy="-10"/>
<feGaussianBlur stdDeviation="7.5"/>
<feComposite in2="hardAlpha" operator="arithmetic" k2="-1" k3="1"/>
<feColorMatrix type="matrix" values="0 0 0 0 0 0 0 0 0 0 0 0 0 0 0 0 0 0 0.25 0"/>
<feBlend mode="normal" in2="effect1_innerShadow_49_19" result="effect2_innerShadow_49_19"/>
</filter>
<filter id="filter4_ii_49_19" x="376.111" y="116" width="208.889" height="208.889" filterUnits="userSpaceOnUse" color-interpolation-filters="sRGB">
<feFlood flood-opacity="0" result="BackgroundImageFix"/>
<feBlend mode="normal" in="SourceGraphic" in2="BackgroundImageFix" result="shape"/>
<feColorMatrix in="SourceAlpha" type="matrix" values="0 0 0 0 0 0 0 0 0 0 0 0 0 0 0 0 0 0 127 0" result="hardAlpha"/>
<feOffset dx="10" dy="10"/>
<feGaussianBlur stdDeviation="7.5"/>
<feComposite in2="hardAlpha" operator="arithmetic" k2="-1" k3="1"/>
<feColorMatrix type="matrix" values="0 0 0 0 1 0 0 0 0 1 0 0 0 0 1 0 0 0 0.25 0"/>
<feBlend mode="normal" in2="shape" result="effect1_innerShadow_49_19"/>
<feColorMatrix in="SourceAlpha" type="matrix" values="0 0 0 0 0 0 0 0 0 0 0 0 0 0 0 0 0 0 127 0" result="hardAlpha"/>
<feOffset dx="-10" dy="-10"/>
<feGaussianBlur stdDeviation="7.5"/>
<feComposite in2="hardAlpha" operator="arithmetic" k2="-1" k3="1"/>
<feColorMatrix type="matrix" values="0 0 0 0 0 0 0 0 0 0 0 0 0 0 0 0 0 0 0.25 0"/>
<feBlend mode="normal" in2="effect1_innerShadow_49_19" result="effect2_innerShadow_49_19"/>
</filter>
<filter id="filter5_ii_49_19" x="376.111" y="327.111" width="208.889" height="208.889" filterUnits="userSpaceOnUse" color-interpolation-filters="sRGB">
<feFlood flood-opacity="0" result="BackgroundImageFix"/>
<feBlend mode="normal" in="SourceGraphic" in2="BackgroundImageFix" result="shape"/>
<feColorMatrix in="SourceAlpha" type="matrix" values="0 0 0 0 0 0 0 0 0 0 0 0 0 0 0 0 0 0 127 0" result="hardAlpha"/>
<feOffset dx="10" dy="10"/>
<feGaussianBlur stdDeviation="7.5"/>
<feComposite in2="hardAlpha" operator="arithmetic" k2="-1" k3="1"/>
<feColorMatrix type="matrix" values="0 0 0 0 1 0 0 0 0 1 0 0 0 0 1 0 0 0 0.25 0"/>
<feBlend mode="normal" in2="shape" result="effect1_innerShadow_49_19"/>
<feColorMatrix in="SourceAlpha" type="matrix" values="0 0 0 0 0 0 0 0 0 0 0 0 0 0 0 0 0 0 127 0" result="hardAlpha"/>
<feOffset dx="-10" dy="-10"/>
<feGaussianBlur stdDeviation="7.5"/>
<feComposite in2="hardAlpha" operator="arithmetic" k2="-1" k3="1"/>
<feColorMatrix type="matrix" values="0 0 0 0 0 0 0 0 0 0 0 0 0 0 0 0 0 0 0.25 0"/>
<feBlend mode="normal" in2="effect1_innerShadow_49_19" result="effect2_innerShadow_49_19"/>
</filter>
<filter id="filter6_ii_49_19" x="165" y="327.111" width="208.889" height="208.889" filterUnits="userSpaceOnUse" color-interpolation-filters="sRGB">
<feFlood flood-opacity="0" result="BackgroundImageFix"/>
<feBlend mode="normal" in="SourceGraphic" in2="BackgroundImageFix" result="shape"/>
<feColorMatrix in="SourceAlpha" type="matrix" values="0 0 0 0 0 0 0 0 0 0 0 0 0 0 0 0 0 0 127 0" result="hardAlpha"/>
<feOffset dx="10" dy="10"/>
<feGaussianBlur stdDeviation="7.5"/>
<feComposite in2="hardAlpha" operator="arithmetic" k2="-1" k3="1"/>
<feColorMatrix type="matrix" values="0 0 0 0 1 0 0 0 0 1 0 0 0 0 1 0 0 0 0.25 0"/>
<feBlend mode="normal" in2="shape" result="effect1_innerShadow_49_19"/>
<feColorMatrix in="SourceAlpha" type="matrix" values="0 0 0 0 0 0 0 0 0 0 0 0 0 0 0 0 0 0 127 0" result="hardAlpha"/>
<feOffset dx="-10" dy="-10"/>
<feGaussianBlur stdDeviation="7.5"/>
<feComposite in2="hardAlpha" operator="arithmetic" k2="-1" k3="1"/>
<feColorMatrix type="matrix" values="0 0 0 0 0 0 0 0 0 0 0 0 0 0 0 0 0 0 0.25 0"/>
<feBlend mode="normal" in2="effect1_innerShadow_49_19" result="effect2_innerShadow_49_19"/>
</filter>
<filter id="filter7_di_49_19" x="182.385" y="638.048" width="395.239" height="80.4" filterUnits="userSpaceOnUse" color-interpolation-filters="sRGB">
<feFlood flood-opacity="0" result="BackgroundImageFix"/>
<feColorMatrix in="SourceAlpha" type="matrix" values="0 0 0 0 0 0 0 0 0 0 0 0 0 0 0 0 0 0 127 0" result="hardAlpha"/>
<feOffset dx="5" dy="5"/>
<feGaussianBlur stdDeviation="12.5"/>
<feComposite in2="hardAlpha" operator="out"/>
<feColorMatrix type="matrix" values="0 0 0 0 0 0 0 0 0 0 0 0 0 0 0 0 0 0 0.5 0"/>
<feBlend mode="normal" in2="BackgroundImageFix" result="effect1_dropShadow_49_19"/>
<feBlend mode="normal" in="SourceGraphic" in2="effect1_dropShadow_49_19" result="shape"/>
<feColorMatrix in="SourceAlpha" type="matrix" values="0 0 0 0 0 0 0 0 0 0 0 0 0 0 0 0 0 0 127 0" result="hardAlpha"/>
<feOffset dx="3" dy="3"/>
<feGaussianBlur stdDeviation="5"/>
<feComposite in2="hardAlpha" operator="arithmetic" k2="-1" k3="1"/>
<feColorMatrix type="matrix" values="0 0 0 0 1 0 0 0 0 1 0 0 0 0 1 0 0 0 0.25 0"/>
<feBlend mode="normal" in2="shape" result="effect2_innerShadow_49_19"/>
</filter>
<linearGradient id="paint0_linear_49_19" x1="375" y1="614" x2="375" y2="14.0001" gradientUnits="userSpaceOnUse">
<stop stop-color="#0F0E2B"/>
<stop offset="1" stop-color="#6D3ECF"/>
</linearGradient>
<linearGradient id="paint1_linear_49_19" x1="0" y1="669" x2="750" y2="669" gradientUnits="userSpaceOnUse">
<stop offset="0.43" stop-color="#5D16B8"/>
<stop offset="0.775" stop-color="#C883E9"/>
</linearGradient>
</defs>
</svg>
